<mxfile host="65bd71144e">
    <diagram id="Omz8NuV_Lej0NusEcTPA" name="Page-1">
        <mxGraphModel dx="1099" dy="741" grid="1" gridSize="10" guides="1" tooltips="1" connect="1" arrows="1" fold="1" page="1" pageScale="1" pageWidth="827" pageHeight="1169" math="0" shadow="0">
            <root>
                <mxCell id="0"/>
                <mxCell id="1" parent="0"/>
                <mxCell id="237" style="edgeStyle=none;shape=connector;rounded=1;html=1;exitX=1;exitY=0.5;exitDx=0;exitDy=0;entryX=1;entryY=0.115;entryDx=0;entryDy=0;entryPerimeter=0;labelBackgroundColor=default;fontFamily=Helvetica;fontSize=11;fontColor=default;endArrow=none;endFill=0;strokeColor=#CC0000;" edge="1" parent="1" source="2" target="12">
                    <mxGeometry relative="1" as="geometry">
                        <Array as="points">
                            <mxPoint x="650" y="177"/>
                        </Array>
                    </mxGeometry>
                </mxCell>
                <mxCell id="238" style="edgeStyle=none;shape=connector;rounded=1;html=1;exitX=0;exitY=0.5;exitDx=0;exitDy=0;entryX=1;entryY=0.57;entryDx=0;entryDy=0;entryPerimeter=0;labelBackgroundColor=default;fontFamily=Helvetica;fontSize=11;fontColor=default;endArrow=none;endFill=0;strokeColor=default;" edge="1" parent="1" source="2" target="4">
                    <mxGeometry relative="1" as="geometry">
                        <Array as="points">
                            <mxPoint x="650" y="410"/>
                        </Array>
                    </mxGeometry>
                </mxCell>
                <mxCell id="2" value="" style="pointerEvents=1;verticalLabelPosition=bottom;shadow=0;dashed=0;align=center;html=1;verticalAlign=top;shape=mxgraph.electrical.miscellaneous.batteryStack;direction=north;" parent="1" vertex="1">
                    <mxGeometry x="620" y="200" width="60" height="100" as="geometry"/>
                </mxCell>
                <mxCell id="192" style="edgeStyle=none;html=1;exitX=0;exitY=0.5;exitDx=0;exitDy=0;exitPerimeter=0;entryX=0;entryY=0.57;entryDx=0;entryDy=0;entryPerimeter=0;endArrow=none;endFill=0;" parent="1" source="3" target="4" edge="1">
                    <mxGeometry relative="1" as="geometry"/>
                </mxCell>
                <mxCell id="3" value="" style="pointerEvents=1;verticalLabelPosition=bottom;shadow=0;dashed=0;align=center;html=1;verticalAlign=top;shape=mxgraph.electrical.resistors.resistor_2;direction=west;" parent="1" vertex="1">
                    <mxGeometry x="252" y="400" width="96" height="20" as="geometry"/>
                </mxCell>
                <mxCell id="4" value="" style="verticalLabelPosition=bottom;shadow=0;dashed=0;align=center;html=1;verticalAlign=top;shape=mxgraph.electrical.opto_electronics.led_2;pointerEvents=1;direction=east;flipV=0;flipH=0;" parent="1" vertex="1">
                    <mxGeometry x="428" y="370" width="100" height="70" as="geometry"/>
                </mxCell>
                <mxCell id="8" value="5 V" style="text;html=1;align=center;verticalAlign=middle;resizable=0;points=[];autosize=1;strokeColor=none;fillColor=none;fontSize=11;fontFamily=Helvetica;fontColor=default;" parent="1" vertex="1">
                    <mxGeometry x="680" y="250" width="30" height="20" as="geometry"/>
                </mxCell>
                <mxCell id="9" value="220&amp;nbsp;&amp;nbsp;Î©" style="text;html=1;align=center;verticalAlign=middle;resizable=0;points=[];autosize=1;strokeColor=none;fillColor=none;fontSize=11;fontFamily=Helvetica;fontColor=default;" parent="1" vertex="1">
                    <mxGeometry x="275" y="370" width="50" height="20" as="geometry"/>
                </mxCell>
                <mxCell id="10" value="Output" style="text;html=1;align=center;verticalAlign=middle;resizable=0;points=[];autosize=1;strokeColor=none;fillColor=none;fontSize=11;fontFamily=Helvetica;fontColor=default;" parent="1" vertex="1">
                    <mxGeometry x="440" y="360" width="50" height="20" as="geometry"/>
                </mxCell>
                <mxCell id="11" value="&lt;font&gt;&lt;span style=&quot;font-size: 14px&quot;&gt;Nina Mathew&lt;/span&gt;&lt;br&gt;&lt;span style=&quot;font-size: 14px&quot;&gt;TEJ3M Unit #4-15&lt;/span&gt;&lt;br&gt;&lt;div&gt;&lt;span style=&quot;font-size: 14px&quot;&gt;XOR circuit with an IC chip&lt;/span&gt;&lt;/div&gt;&lt;div style=&quot;font-size: 14px&quot;&gt;&lt;br&gt;&lt;/div&gt;&lt;/font&gt;" style="text;html=1;align=center;verticalAlign=middle;resizable=0;points=[];autosize=1;strokeColor=none;fillColor=none;fontSize=11;fontFamily=Helvetica;fontColor=default;" parent="1" vertex="1">
                    <mxGeometry x="142" y="70" width="180" height="60" as="geometry"/>
                </mxCell>
                <mxCell id="181" style="edgeStyle=none;shape=connector;rounded=1;html=1;exitX=1;exitY=0.885;exitDx=0;exitDy=0;exitPerimeter=0;entryX=1;entryY=0.885;entryDx=0;entryDy=0;entryPerimeter=0;labelBackgroundColor=default;fontFamily=Helvetica;fontSize=11;fontColor=default;endArrow=none;endFill=0;strokeColor=#000000;" parent="1" source="12" target="134" edge="1">
                    <mxGeometry relative="1" as="geometry">
                        <Array as="points">
                            <mxPoint x="610" y="240"/>
                            <mxPoint x="610" y="297"/>
                        </Array>
                    </mxGeometry>
                </mxCell>
                <mxCell id="12" value="" style="pointerEvents=1;verticalLabelPosition=bottom;shadow=0;dashed=0;align=center;html=1;verticalAlign=top;shape=mxgraph.electrical.electro-mechanical.2-way_switch;direction=east;" parent="1" vertex="1">
                    <mxGeometry x="507.5" y="174" width="75" height="26" as="geometry"/>
                </mxCell>
                <mxCell id="13" value="+" style="text;html=1;align=center;verticalAlign=middle;resizable=0;points=[];autosize=1;strokeColor=none;fillColor=none;" parent="1" vertex="1">
                    <mxGeometry x="660" y="190" width="20" height="20" as="geometry"/>
                </mxCell>
                <mxCell id="14" value="-" style="text;html=1;align=center;verticalAlign=middle;resizable=0;points=[];autosize=1;strokeColor=none;fillColor=none;" parent="1" vertex="1">
                    <mxGeometry x="660" y="290" width="20" height="20" as="geometry"/>
                </mxCell>
                <mxCell id="43" value="Input A" style="text;html=1;align=center;verticalAlign=middle;resizable=0;points=[];autosize=1;strokeColor=none;fillColor=none;fontSize=11;fontFamily=Helvetica;fontColor=default;" parent="1" vertex="1">
                    <mxGeometry x="510" y="150" width="50" height="20" as="geometry"/>
                </mxCell>
                <mxCell id="190" style="edgeStyle=none;html=1;exitX=1;exitY=0.885;exitDx=0;exitDy=0;exitPerimeter=0;endArrow=none;endFill=0;" parent="1" source="134" edge="1">
                    <mxGeometry relative="1" as="geometry">
                        <mxPoint x="580" y="410" as="targetPoint"/>
                    </mxGeometry>
                </mxCell>
                <mxCell id="240" style="edgeStyle=none;shape=connector;rounded=1;html=1;exitX=1;exitY=0.115;exitDx=0;exitDy=0;exitPerimeter=0;labelBackgroundColor=default;fontFamily=Helvetica;fontSize=11;fontColor=default;endArrow=none;endFill=0;strokeColor=#CC0000;entryX=1;entryY=0.115;entryDx=0;entryDy=0;entryPerimeter=0;" edge="1" parent="1" source="134" target="12">
                    <mxGeometry relative="1" as="geometry">
                        <mxPoint x="595" y="180" as="targetPoint"/>
                    </mxGeometry>
                </mxCell>
                <mxCell id="134" value="" style="pointerEvents=1;verticalLabelPosition=bottom;shadow=0;dashed=0;align=center;html=1;verticalAlign=top;shape=mxgraph.electrical.electro-mechanical.2-way_switch;direction=east;" parent="1" vertex="1">
                    <mxGeometry x="507.5" y="274" width="75" height="26" as="geometry"/>
                </mxCell>
                <mxCell id="177" value="Input B" style="text;html=1;align=center;verticalAlign=middle;resizable=0;points=[];autosize=1;strokeColor=none;fillColor=none;fontSize=11;fontFamily=Helvetica;fontColor=default;" parent="1" vertex="1">
                    <mxGeometry x="520" y="240" width="50" height="20" as="geometry"/>
                </mxCell>
                <mxCell id="233" style="edgeStyle=none;shape=connector;rounded=1;html=1;exitX=0;exitY=0.5;exitDx=0;exitDy=0;exitPerimeter=0;entryX=0;entryY=0.885;entryDx=0;entryDy=0;entryPerimeter=0;labelBackgroundColor=default;fontFamily=Helvetica;fontSize=11;fontColor=default;endArrow=none;endFill=0;strokeColor=default;" edge="1" parent="1" source="185" target="12">
                    <mxGeometry relative="1" as="geometry">
                        <Array as="points">
                            <mxPoint x="508" y="160"/>
                        </Array>
                    </mxGeometry>
                </mxCell>
                <mxCell id="185" value="" style="verticalLabelPosition=bottom;shadow=0;dashed=0;align=center;html=1;verticalAlign=top;shape=mxgraph.electrical.logic_gates.inverter_2;direction=west;" parent="1" vertex="1">
                    <mxGeometry x="322" y="130" width="100" height="60" as="geometry"/>
                </mxCell>
                <mxCell id="227" style="edgeStyle=none;html=1;exitX=1;exitY=0.5;exitDx=0;exitDy=0;exitPerimeter=0;entryX=0;entryY=0.75;entryDx=0;entryDy=0;entryPerimeter=0;endArrow=none;endFill=0;" edge="1" parent="1" source="222" target="226">
                    <mxGeometry relative="1" as="geometry"/>
                </mxCell>
                <mxCell id="230" style="edgeStyle=none;shape=connector;rounded=1;html=1;exitX=0;exitY=0.75;exitDx=0;exitDy=0;exitPerimeter=0;entryX=1;entryY=0.5;entryDx=0;entryDy=0;entryPerimeter=0;labelBackgroundColor=default;fontFamily=Helvetica;fontSize=11;fontColor=default;endArrow=none;endFill=0;strokeColor=default;" edge="1" parent="1" source="222" target="185">
                    <mxGeometry relative="1" as="geometry"/>
                </mxCell>
                <mxCell id="232" style="edgeStyle=none;shape=connector;rounded=1;html=1;exitX=0;exitY=0.25;exitDx=0;exitDy=0;exitPerimeter=0;entryX=0;entryY=0.5;entryDx=0;entryDy=0;entryPerimeter=0;labelBackgroundColor=default;fontFamily=Helvetica;fontSize=11;fontColor=default;endArrow=none;endFill=0;strokeColor=#CC0000;" edge="1" parent="1" source="222" target="224">
                    <mxGeometry relative="1" as="geometry">
                        <Array as="points">
                            <mxPoint x="440" y="220"/>
                        </Array>
                    </mxGeometry>
                </mxCell>
                <mxCell id="222" value="" style="verticalLabelPosition=bottom;shadow=0;dashed=0;align=center;html=1;verticalAlign=top;shape=mxgraph.electrical.logic_gates.logic_gate;operation=and;direction=west;" vertex="1" parent="1">
                    <mxGeometry x="182" y="174" width="100" height="60" as="geometry"/>
                </mxCell>
                <mxCell id="235" style="edgeStyle=none;shape=connector;rounded=1;html=1;exitX=0;exitY=0.5;exitDx=0;exitDy=0;exitPerimeter=0;entryX=0;entryY=0.885;entryDx=0;entryDy=0;entryPerimeter=0;labelBackgroundColor=default;fontFamily=Helvetica;fontSize=11;fontColor=default;endArrow=none;endFill=0;strokeColor=default;" edge="1" parent="1" source="224" target="134">
                    <mxGeometry relative="1" as="geometry">
                        <Array as="points">
                            <mxPoint x="508" y="350"/>
                        </Array>
                    </mxGeometry>
                </mxCell>
                <mxCell id="224" value="" style="verticalLabelPosition=bottom;shadow=0;dashed=0;align=center;html=1;verticalAlign=top;shape=mxgraph.electrical.logic_gates.inverter_2;direction=west;" vertex="1" parent="1">
                    <mxGeometry x="340" y="320" width="100" height="60" as="geometry"/>
                </mxCell>
                <mxCell id="228" style="edgeStyle=none;shape=connector;rounded=1;html=1;exitX=1;exitY=0.5;exitDx=0;exitDy=0;exitPerimeter=0;entryX=0;entryY=0.25;entryDx=0;entryDy=0;entryPerimeter=0;labelBackgroundColor=default;fontFamily=Helvetica;fontSize=11;fontColor=default;endArrow=none;endFill=0;strokeColor=default;" edge="1" parent="1" source="225" target="226">
                    <mxGeometry relative="1" as="geometry"/>
                </mxCell>
                <mxCell id="229" style="edgeStyle=none;shape=connector;rounded=1;html=1;exitX=0;exitY=0.25;exitDx=0;exitDy=0;exitPerimeter=0;entryX=1;entryY=0.5;entryDx=0;entryDy=0;entryPerimeter=0;labelBackgroundColor=default;fontFamily=Helvetica;fontSize=11;fontColor=default;endArrow=none;endFill=0;strokeColor=default;" edge="1" parent="1" source="225" target="224">
                    <mxGeometry relative="1" as="geometry"/>
                </mxCell>
                <mxCell id="234" style="edgeStyle=none;shape=connector;rounded=1;html=1;exitX=0;exitY=0.75;exitDx=0;exitDy=0;exitPerimeter=0;labelBackgroundColor=default;fontFamily=Helvetica;fontSize=11;fontColor=default;endArrow=none;endFill=0;strokeColor=default;" edge="1" parent="1" source="225">
                    <mxGeometry relative="1" as="geometry">
                        <mxPoint x="450" y="160" as="targetPoint"/>
                        <Array as="points">
                            <mxPoint x="360" y="305"/>
                            <mxPoint x="450" y="305"/>
                        </Array>
                    </mxGeometry>
                </mxCell>
                <mxCell id="225" value="" style="verticalLabelPosition=bottom;shadow=0;dashed=0;align=center;html=1;verticalAlign=top;shape=mxgraph.electrical.logic_gates.logic_gate;operation=and;direction=west;" vertex="1" parent="1">
                    <mxGeometry x="170" y="290" width="100" height="60" as="geometry"/>
                </mxCell>
                <mxCell id="236" style="edgeStyle=none;shape=connector;rounded=1;html=1;exitX=1;exitY=0.5;exitDx=0;exitDy=0;exitPerimeter=0;entryX=1;entryY=0.5;entryDx=0;entryDy=0;entryPerimeter=0;labelBackgroundColor=default;fontFamily=Helvetica;fontSize=11;fontColor=default;endArrow=none;endFill=0;strokeColor=default;" edge="1" parent="1" source="226" target="3">
                    <mxGeometry relative="1" as="geometry">
                        <Array as="points">
                            <mxPoint x="70" y="410"/>
                        </Array>
                    </mxGeometry>
                </mxCell>
                <mxCell id="226" value="" style="verticalLabelPosition=bottom;shadow=0;dashed=0;align=center;html=1;verticalAlign=top;shape=mxgraph.electrical.logic_gates.logic_gate;operation=or;direction=west;" vertex="1" parent="1">
                    <mxGeometry x="70" y="230" width="100" height="60" as="geometry"/>
                </mxCell>
                <mxCell id="242" value="" style="shape=image;verticalLabelPosition=bottom;labelBackgroundColor=#ffffff;verticalAlign=top;aspect=fixed;imageAspect=0;image=data:image/png,iVBORw0KGgoAAAANSUhEUgAABJkAAADeCAIAAAARuka7AAAgAElEQVR4nOy9d3xb5b34f46WZVmyLNuSh7xXvO0kXrETj8QhCSQkIYSWLKCs0kJL4fbe0r56b2lflxeF2wu0lzBKGVkkJE7IduJ4xDPeW96WrWHLlixbe56j3x+fL+enlxyCaYHY8Lz/ss/W85znOc9n4y6XC0MgEAgEAoFAIBAIxIqCdrcfAIFAIBAIBAKBQCAQXxskyyEQCAQCgUAgEAjEygPJcggEAoFAIBAIBAKx8kCyHAKBQCAQCAQCgUCsPJAsh0AgEAgEAoFAIBArDyTLIRAIBAKBQCAQCMTKA8lyCAQCgUAgEAgEArHyQLIcAoFAIBAIBAKBQKw8kCyHQCAQCAQCgUAgECsPxt1+AAQCgUB8rxgcHOzt7eVwOEVFRVwuFza6XK7+/v6+vr6goKCSkhLYMjQ01NPTMzk5OTc3x+PxQkNDs7OzY2JiOBwOhmEOh6Onp6enp8doNMJFcBxnMpkxMTGJiYkikcjLy+vLnsFms7W0tAwPDysUCovFwuPxoqKicnNzo6Oj6XT6V/4EgiAsFouXlxeTyfwGWgSBQCAQiG8HJMshEAgE4pvE6XS2tbUplUoajbZt2zbYKJPJLl++3Nvb+9BDD2EYZrfbGxsbKyoqJiYmGAwGQRA0Gq2np6e/v7+4uDgvLy8wMNDpdHZ2dp44cYLH4wUEBFDXb2trCwwMLCoqysnJ8ff397i7y+VSq9XV1dWXL1/GcZwkSZfLRRBEb29ve3v7/v37k5KSQFb8MgiCmJ2dLSsrKywsTE5OZjDQhxKBQCAQyxT0iUIgEAjEN0lcXFxcXFxra+unn366Zs0aoVBot9srKyvr6+vFYnF2djZY5D766COlUpmZmblhw4bg4OD5+fm2trbKysqpqSkMw7Zt20aSpFarVSgU991337p16zAMI0nSYrF0dnaePHlSoVDweLyCggKPu+t0uqamprfffpvNZt93331paWk+Pj4qlaq+vv7SpUtOp/P555+Pjo7GcfzLnt/pdCqVyjfeeIPP5yckJCBZDoFAIBDLFvSJQiAQCMQ3CZvNLi0tVSgUZ86cuXz58o9+9KOxsbHy8nImk/nggw+GhITY7fbjx48PDw8//PDDBw4coGxrW7ZsCQ8P//jjjz///PPc3FywnjEYjHXr1oE1D3j00Ufn5+elUunAwMBiWW54ePjixYt6vf6tt95KSkpis9mwPTs7m8PhHD9+/IEHHggPD2cymXa7Xa/Xm81msAp6e3vzeDwmk6nT6WZnZ51Op1arVavVAQEBHA6HJEk42Ol00ul0Hx8fHo+3FHdNBAKBQCC+PZAsh0AgEIhvmOjo6K1bt/b29v75z38uLCx8++23p6en9+3bt3HjRoIgtFrt2bNni4uL169f7+4kieP47t27e3t7b926VVFRsXPnztteHMfx6OhonU63eBdBEH19fc3NzQ8++GBKSgqLxaJ2CYXCRx991GKxuFwus9ns6+s7Njb20UcfXblyZW5ujsvlFhUV7du3Lz4+/uTJkydPnpydnT18+HBvb++ePXu2bdtmNpuPHDly6dIlpVIZEhKyffv2gwcPunt+IhAIBALx3YNkOQQCgUB886Smpj722GPPPffck08+OT4+/thjj23bto1Go5nN5uHhYZPJlJmZGR4e7nEWl8uNjY3t7+8fGxu77WVdLpdCoejq6uLz+TExMR57FxYWVCoVk8ksLCz0MJoxGIywsLBf//rXPj4+bDa7u7v7yJEjNTU1jz32WHh4+OTkZHl5+cmTJ5955pk1a9ZoNBqZTJabm7tx48aoqCiZTPbOO+/U19ffd999YrF4aGiosrJyaGjojTfe8PLyuoO7JgKBQCAQ3ypIlkMgEAjEN4+Pj09KSsqWLVvKysqSkpKysrJCQ0MxDHM4HDKZzOFwBAUF+fr6epxFo9EEAgGLxZqenoYtVqv16NGjra2t2BfxclKpNDg4+P7778/MzPQ4fX5+fm5ujsViRUZGgog1Pz/f3Nzc399PHZOenp6ZmWk2m7lc7u7du/fu3cvlcg0Gw+Dg4MzMjE6nS0tLs9lsJ0+eXLt27YYNG9hsdltb26VLl375y18WFhYKBIKcnByBQHDhwoWGhob169ffIZ0mAoFAIBDfKkiWQyAQCMQ3D7gyKpVKOp0+Pz+v0+kcDgc4PdJoNBzHXS6Xy+W67Ykul4tG+//Ln9rtdrPZjGEYSZImk0kqlTqdThzHF6ejJEmSJEn3LXa7fWZmZmRkBMMwp9PZ19dnNpsjIiKioqK2bNlCEMTMzEx/f79cLh8fH/fy8rLb7Xw+XyQSMRgMf39/oVCo1WqHh4eVSqVer29tbaXT6S6Xa3Z2Vq/XNzY2ZmdnI1kOgUAgEHcLJMshEAgE4ptHpVLV1tZKJJI9e/Y0NDTU1dXFxsbm5uYymUyxWEyn01UqlV6vp3KTAC6Xa35+3mq1CoVC2MJkMvPy8qiSdDabLSUl5eTJk62trWlpabGxse6n83g8X19fq9WqVCojIyMxDONwOMnJySD1WSyWioqKmZkZm83G5/MNBkNfXx9JkjabTa/Xm0wmb2/vxT/EbDZrNBrIvSmVSmGjwWCA6yMQCAQCcRdBshwCgUAgvmHMZnNbW9vnn3+enp7+0ksvvf/++9XV1VevXo2Ojg4ICIiJiREKhRKJRC6XC4VC93gzjUYjlUoJgkhMTIQtdDo9JSWluLiYOqaoqKixsXF0dHR8fNxDlvP39xeLxTiONzU1ZWdn0+l0Ho+XnZ2dnZ3tcDgmJyexL+x+bW1tH374oV6v3759e2xsbFRUlNFoVKlUi38LjUZjMpkMBiMlJcXX1xee1mq1Wq3WuLg49/QqCAQCgUB8xyBZDoFAIBDfJGDCqqio0Gg0f/vb34KDgx977DGpVFpbWxsTE7N///7Q0NCSkpLW1tbW1taYmBhI7k+SpNVqraqq6uvri4iIKCoq+rLre3t7R0REQGybxy4vL6/k5OSEhIQzZ87s2rVLLBaz2WwajeZ0Oqenpy9evKjT6UiSdDqdPT09SqXyd7/73f3330+SpNFoZDAYdrsd3D5BYHM6nQRB8Hi88PBwFou1fv36xMRENptNEMTQ0FBzczMYGL/VxkQgEAgE4g7QvvoQBAKBQCCWjNFovHz5cmtr6+7du/Py8phMZlRU1I4dO2g02meffTY+Pk6j0Z5++mk+n//++++/+eabo6Oj4BV54sSJ119/nSCI7du3BwUF3eEWfD6fIAiTybR4V0ZGxkMPPTQzM/PII49cvXpVrVaDL+VHH3302muv0Wg0kL4gnG9qasrlcun1+o8//riurs5kMtlsNhzHWSwWjuNyuVwul7PZ7MzMzIiIiD/+8Y+dnZ1wtU8++eSTTz4JCQlxj+tDIBAIBOI7BtnlEAgEAvFNcv78+fr6+uTk5IMHD4LgRKPRNm3aND4+furUqTfffPPNN9+Mjo7+4x//ePr06Rs3bnz++edgE2OxWOvWrduxY0deXt6dE/37+/tD2QCHw8FkMt13+fj4FBcXv/vuu++///6rr75KkiRkUomMjHzllVfq6ur8/f0ZDEZOTk5XV9frr7/+0UcfYRiWlZWVmZk5MDBw5MiRtLS0iIiI1NTUU6dO9fX1QVm8l19++fDhw88//zxJklwuNzo6+vHHHw8ICEB2OQQCgUDcRfDbphFDIBAIBOKfY3h4WCaTCQSCjIwMBuP/aQxdLtfY2NjIyAiXyy0oKKDRaDabbXx8XCqVzs7Ozs3N+fr6BgYGxsbGRkZG8vl8DMOcTufIyIhUKk1NTY2IiFh8i6CgoJSUlMWWMZIkzWZzb2/v9PS0SqUiCMLPzy8iIiIpKWlqagqSr4Cf5MjIiMlk8vf3j4mJodPpYKYrKSnhcDgtLS0zMzM+Pj5xcXGRkZFGo7Gnp2dqaspkMnG53PDw8KioqODg4O+mSREIBAKBuC1IlkMgEAjEXQNSUxoMBijh/c26LJIkaTAYSJL09vb2SJgJex0Oh9Vq5XK5YF5zOBxOp/O22SwBp9PpdDrpdLqHMRCBQCAQiLsCkuUQCAQCgUAgEAgEYuWBgrYRCAQCgUAgEAgEYuWBZDkEAoFAIBAIBAKBWHkgWQ6BQCAQCAQCgUAgVh5IlkMgEAgEAoFAIBCIlQeS5RAIBAKBQCAQCARi5YFkOQQCgUAgEAgEAoFYeSBZDoFAIBAIBAKBQCBWHkiWQyAQCAQCgUAgEIiVB5LlEAgEAoFAIBAIBGLlgWQ5BAKBQCAQCAQCgVh5ML7uCS0tLWaz+dt4FAQCgUAgEAgEAoH4fpCbm+vt7f2t3uJry3JqtVooFPr5+X0bT4P4xtFoNFqtNiEh4W4/COKrcTgcfX19q1at4nA4d/tZEEtiamrKZrNFR0ff7QdBLAmCIPr6+mJjY7lc7t1+FsRXMzExwWQyxWLx3X4QxJKwWCwDAwOpqaksFutuPwsCcfexWq0SiYQgiG/7Rl9blsMwTCwWo7l1pUCn0y0WC5LlVgQWi0UikURGRgoEgrv9LIglYbPZjEYjGl8rBbvdPjg4GB4eLhQK7/azIL6a+fl5NpuNxtdKYWFhYXBwMDo62sfH524/CwJx99Hr9RKJ5Du4EYqXQyAQCAQCgUAgEIiVB5LlEAgEAoFAIBAIBGLlgWQ5BAKBQCAQCAQCgVh5IFkOgUAgEAgEAoFAIFYeSJZDIBAIBAKBQCAQiJUHkuUQCAQCgUAgEAgEYuWBZDkEAoFAIBAIBAKBWHkgWQ6BQCAQCAQCgUAgVh7/TK3w7xkkSTocDqfTiWEYg8FgMpk0GhJxlx1Op9Nut7tcLo/tOI7TaDQWi4V67Z+DIAi73U6SJIZhXl5edDodx3Fqr81mIwgCwzAGg8FisajtJEk6nU4YOCRJMhgMOp3OYrEYDIb7MTabDa58BzgcDo7jLpfLZrNZLBYcx3k8Hp1Od39Cq9UKf3t5ebnfwmazWa1WHMfZbLb7432/sdvtTqfT5XLRaDQ2m+3eXwRB2Gw22OXl5UUNCpfLRZIknEgQBI7jdDqdyWSyWCzqdJfLBaPszneHs+B4g8HgdDrZbLaXlxdcf/HxNBoN7oXjuNPptNlsdrudxWJBv38zLbIMcDgcDofD5XLhOO7t7e3+06iBADOVx7sNJ8IwodPpMNDcOw769M53ZzAYXl5ecLzRaHQ6nSwWy9vb231WtNvtDocDwzCPJ4Tr22w2JpPp7e3t/nju3OH1cO/iJTTV8gLmMZIkcRz3mOUWQ8172O1WC9ToW7yLWmbAyKXT6YsnTPep+Mug+o6aMGk0GpfLdTgcMFF7QKPRGAwGg8GAU+x2O5yyUiZMgiD0er3L5fLx8YEJBIYYm832aN4vG2LYFxMmfKrgXYWWh9d1iUOMTqez2Wzqglar1eVywShzvxG8G9gX3zXqV8CnCo7/14eYw+EwGo0ul4vH41E/ZOlAc1mtVgaDwWazmUwmtYsaDvDmuO+67XXcF88eXxOqVZlMpsfkQBAE3IggCBgOcLrH3Aij6Q4PQKPRoP1dLpfZbLbb7QwGw9vbm5pR3cFxHMdxJpMJixz3RvD29mYwGEvspuUJkuWw2dnZ9vb2rq4uDMPS09Nzc3NFItHdfiiEJyMjIzdv3pybm3PfyGAwfHx8QkJCNmzY4O/v7/5dRCyRqamp8vLy2dlZDMN27NiRmJjo/o0vLy8fGxtjMpmZmZkbNmygtms0mq6urpaWltHRUY1GExcXt2rVqvXr1ycmJlKz//T0dGVlpVwu/7Jb4zjOYrGefvppHo/ncDjOnz//wQcf+Pn5/c///E9oaCh1HYVCcfLkSfhgbN++PTU1FSZZh8Nx7dq148ePCwSCvXv3btq06VtonuVIbW1tf3+/0WgMCwvbs2cPrHJg18TEREVFxfz8fFBQ0Pbt26mpzOFwTExM1NXV9fX1KZVKLy+v+Pj41NTULVu2UCt+o9E4MDBQUVFxh1vjOJ6bm7tp0yaSJK1W6/PPPz8+Pv7jH/9469atU1NT1dXVHgczmUx/f/+EhITMzEwejzc6Ovr555/fvHlz/fr1P//5z/38/L6dFroLtLa2tre36/V6Pz+/Q4cO+fj4UGvNmZmZS5cuqdVqoVC4efPmqKgo2E6SpEwma2ho6OnpgWESFxeXlJR0zz33CAQCeMmtVuvY2NjFixfvsMTHcTwlJWXnzp1w/Msvv9zR0bF58+YnnnhCKBTCMS6Xq76+vqWlhSAIHo/3+OOPU2tNhUJx4cKFc+fOFRQUPPXUU+Hh4be9i16v7+3tvXnzpsetmUxmQEAAdDGXy/0Xm/G7Z2RkpLW1VS6X+/r6rl69et26dXdYw+l0uu7u7oaGBhzHk5OT169fHxgYCLscDsfk5GR5eblOp8vMzMzJyaEaH8MwtVrd2dnZ2to6Ojqq1WphwiwsLIyPj3efMG/cuKFUKr/s7jiOczicp556isPhOByOM2fOfPLJJ0Kh8JVXXmlqalIqlR4CCZvNDggISE9PT0xM5HA4NputvLz82LFjIpHoRz/6UVFR0b/UcN8+BEGMj48/99xzFovlxRdf5HA4g4ODOp2Ox+MdPHiQz+dTQ0yj0Vy4cEGtVgcEBGzcuDEuLo66CEmSLS0t7e3tAwMDs7OzAoEgKSkpLy8vLS2Nz+djGGaz2aRS6cWLFykxbDE4jickJDz44IPw782bN8vKynQ63bZt2w4dOgQbXS5Xc3NzQ0MDQRBsNvvxxx/n8/kwxKanpy9evHjy5MmCgoInnngiJibmtncxGAz9/f1VVVUet2YymQKBAIaYr6+vy+Vqb29/+eWXzWbz//7v/6akpFBC5hLR6XRlZWVlZWXx8fEHDx7Mzs6mdvX29ra0tGg0GpFItGbNmrVr197hOhqNprW1tauri81mJycnFxUVcTgc2GWxWEZHR69cuUIQxPr16zMyMtxn++np6ZaWls7OTqlUarFY4uLiEhMTS0pKwsLCYBXndDoVCsWlS5d0Ot2X3R3H8ZCQkMceewzDMJvN9u677165ciUtLe3pp59uampSq9WwZqAOZrPZQqEwKysrOjqazWbPz89fuXLlyJEj6enphw4dysjIcO+mJ598Mjo6+mu16t0FrX2x3t7et99+u7u7G8OwhISEP/3pT0iWW4aMjY2dOHFibGzMfSOYF1gsVkBAwC9+8YvS0lLUd18XlUp16tSpgYEBDMPkcvlPfvKTnJwcau+NGzeqqqpg6UDJcjdv3jx69GhTU9PCwoLVanU4HC0tLd7e3lFRUTt37vzxj38cGhoKVz537lxLS8uX3RrHcS6Xu3//fh6P19LScvHixZ6enuzs7KCgIEosV6vVVVVVf/vb3yj9nK+vL0yyNBotISFBqVTW1taGhITk5eX5+Ph8O420vGhoaDh37pxarQ4LCzOZTE8++SS1HJycnPz000+lUmlKSkpeXh4Mh6mpqYsXL37wwQcajQaUl/Bh8/X1PXHixK9+9auMjAwul2symbq7uw8fPnyHW9NoNIIgNm3aZDAYTp06VVNTAwMQx/GOjo7F54Ktw9vbe+3atT/96U/j4+O5XG5jY+Po6OiuXbt8fHzurPddQXR0dBw5cmRqasrPz89oND755JP+/v6wa3Z29tSpU0NDQ6tWrUpMTARZTqvVXr169e9//7tCoTAajbAKZ7PZHA7n1KlTTz/9dEFBAZ/Pt1qtQ0ND77zzzm2tLgCNRtu5c+fOnTudTufZs2crKyt1Oh2dTndfPI2Ojp45c+bChQsul8vf3z8uLm7Dhg08Hg/DMD6fLxKJWltbx8bGNm3aFBQUdFuLjcFgaG9vX9zFoL9ns9nZ2dk/+9nPcnJyVpaLxKVLl86cOaNQKLhcbk5OTnZ29h1kOb1e39zcfPjwYRzH/fz8XnvtteLiYli/Op3OycnJI0eOKJXKhx9+OC4ujpLlqqqqjh492tzcrNPprFar0+lsaWlhs9mnTp3avXv33r17Q0JCMAybnp4+c+ZMZ2fnl90dx/GAgIBDhw5xOJympqZLly719vYWFBQEBgZeu3bt1q1bBoPB/XjoGl9f3+Li4ieeeCIpKWnVqlWTk5MNDQ3h4eFZWVnLfMJUKBSnTp1qbGwMCwvjcrnDw8NHjx5VKBQ8Hs9gMDz55JPU516r1X722WdDQ0OxsbGxsbEgyzmdzpmZmbfeequmpkalUlksFofDwWAwrl+//tFHH23fvv3HP/5xRkaGzWYbHR39+9//bjabv+xJaDTaPffcA7KcyWQqKyu7ePFieno6fOmA8fHxs2fPnj59GqyIsbGxJSUlIC76+vqGhoa2t7dLpdLCwkKxWAxWdA+MRmNnZ+cdZtE1a9bAzMBisVgsVl1d3ZkzZwQCwZcJh7cFXtS//vWvk5OTq1ev9vX1dd974sSJ69evazQaf3//bdu23VmW02q1VVVVJ0+epNPp/v7+H374YUpKCvw0q9U6ODj43nvv2e12JpMZFRUF05Hdbr9+/fo//vEPiUSi1+vBmtrQ0ODt7X3y5MkDBw5s3bpVKBQ6nU65XA6j6cvujuN4ZmYmyHIVFRXl5eXDw8MpKSksFuvMmTODg4Meqg0ajcZkMv38/Hbt2vXwww+LxeKYmBiJRDIwMJCRkZGQkODr6xsSEgLdVFRUFBoaettuWp780GU5g8EwMDAAq1Lq39TU1O+Twvj7gdVqnZ2dnZqaotFoq1evhs+nyWRSqVQymUwqlX744YdisRjJcl8Xu90ODYth2OXLl+Pi4mJiYihl8/z8vEql4nA4sEpwOp319fWHDx+ura2dn5/38/OLi4sTCAQymWxycnJ2dnZubm5+fv7FF1/08/ODqRNmQ6fTqdPpDAaDy+Xy8/MDzxAMw0AMIEmysbGxoaGBw+Hk5OR4eXlRhiaZTHbz5k1qQq+vr1+7di0ly0VEREREREgkks7Ozo6ODnfL4fcYvV4/MzOjUqkWFhZOnDhRXFwcGxsL7Wyz2aA3RSIRqJmlUun58+c//PBDiUTCZDIjIyODgoLsdrtcLh8ZGZmenjYajf/2b/9WUFAAmhHq62UymfR6vdVqZTKZgYGB0CmwOnS5XPPz85988olKpdq0aVNUVBSO40ajEd6i0NDQ0NBQb29vkiR1Ot3Y2BgMXljdRkVFBQYGymSyyspKf39/WMV+DzAYDDMzM1NTUxqN5uOPP87Pz1+7di1MU3a7Xa1WT01NCQQCWF5MTU1dvXr1nXfe6e/vd7lcYrE4Pj4ewzCZTDY+Pq5Wq3U63bPPPrtt2zYMw8BdFmQ5s9ms1+vBTU4oFIKnGQw0l8tltVo/++wzqVS6Zs0ad4MPhmGgPodxpNfrL126lJ6eDrIcl8uNiooKDQ2dmJi4efNmRETEbZeGTqfTYDBAF4vF4pCQEG9vb4IgdDrd+Pi41WpVq9UJCQnBwcGU4XH5Mzc319LS0tfXZzabYUYaHx+PjY39Mv9Dp9Op1+uhEVQq1enTp4VCIZg1oP3hHZifn4fRZ7fb6+vr/+///q++vl6n0wkEgvj4eF9fX7lcPjk5qVar5+bmFhYWfvGLX3hMmA6HQ6/Xw4QpEAi4XC640sGDkSRZV1d369YtLpeblZXFYrHm5+enp6cNBoNYLIbp0eVyzc7OKpVKmUxmNBr5fP7LL78cGRkZERExOjra0dHR3d2dn5//XbX018blck1OTp49e9ZoNGZlZQUFBXV3d0PzMpnMo0eP5uXlUfo7h8MB8x6PxwOHfJIk5XL5n/70p6qqqunpaR8fn/Dw8ICAAJ1ONzo6Oj09bTKZTCbT/v37k5OTwTMThpjFYtHr9WazGcdxoVAIbgtgHIOnampq6u7uXlhYEIvFqamp1AN3dHR0dHTAEGOz2VeuXMnIyABZjsPhREVFhYWFgXNEbGwsjHcPCIJwn0VDQkI4HI7HLBobGysWiwMDA3Nyci5cuHDx4sV77rknIiJi6U5Js7OzdXV1w8PDTCYzLS2NmoEJgpibm6uvrx8aGrLZbBqNRigUymSysLCwL9POOByOhYWFqakpHMdVKtXRo0d//vOfgyBNkqTZbJ6amrLb7Xq9Htp2YWGhpqbmrbfe6uzstFgsIpEITGSwflCr1QsLCwaD4eDBg+CizGKxqO+aXq83Go0YhgUGBnI4HPCThE4hCKK8vLy3tzc0NBTcdjQaDdw6JiYG5G2n0zk7Owvjzul0BgQEPPPMM9HR0eHh4X19fbdu3crIyEhJSXHvppiYmNt20/Lkhy7LjY+P9/X16XQ6mChBL5KTk4NkueUJKKgOHToEjkAWi2VwcPDIkSNyuby5uVmhUBAEsbK8nJcVSqWyoqIiISFhx44di13w4aPyySefVFVVmUym7Ozse+65Z9WqVTweb2Zmpra2tqamZmBggMFgZGRkPPDAA6Ghofv379+4cSOGYVqttrKysq6uzuFw5OfnFxQU+Pv7w1zM4/GUSmVfX9/U1NTatWtLS0upWzudzrGxsVu3boEdyWaz9fT0DA4OlpSUgGjB4XCys7O7urr6+vpu3ryZn5//g+p9s9nc29t77NixZ599NiQkZHGX2e321tbWU6dO9ff383i8vXv3rl27Njg42OFwDA8P37hxo7a2tqqqatWqVUFBQTExMVlZWf/+7/8O53Z0dNTU1IyMjAgEgoMHD0ZERNDpdBqNlp6ebjKZhoeHOzs77XZ7Xl6eu0cThmGrV6/eunWrWCwmSVKr1TY1NZ08eVKr1Q4MDMzMzISHh+fm5oKEuW7duqCgoJVlxvlK7Hb70NDQZ599JhKJEhISFneKw+Ho7+8/duxYR0eHj4/Pjh078vLywsLCsC9cZG/evNnQ0BAREREeHg4rjF//+tfgYymRSGpqanp7e9ls9kMPPQQyPI7jcXFxYF7o7u42mUyZmZnuq0y73d7c3Dw+Pg5xrVartbKy8oknnggODoZgqqCgoMLCQrlcfv369by8vKioqL/NbgsAACAASURBVDt3ytq1a7ds2RISEkKS5NzcXGNj46effjo3NyeRSJRK5QqS5UAHDwoLl8ulVqtrampEIlFAQMBXnksQxI0bN9LS0iIiIoKCghYfAI3z4Ycf1tTUWCyWvLy8zZs3JyQkcLlclUp18+bN6upqiURy8eLF1NTUBx54QCwWHzp0aGZmBsMwjUYDEya4qK1bt04gEECwHIfDUSgUfX1909PT69atgwkWoNFoa9asefTRRzEMA4XL6dOn4cvY2tpKEASHw8nLy+vr6+vp6amrq8vNzV22E+b8/Pzg4ODAwACdTi8tLXVvYZi+zpw5ExQUlJKScttoMbVaXVlZWVZWZjQaV61atXnz5qysLD6fbzAYhoeHT506NTExcenSpcDAwNjY2MTExBdeeAHE76Ghoerq6u7ubiaT+cADD6xatQpikqm3+saNGwqFIjQ0NCUlhdIdw0w7MjICA8rhcNTU1Dz22GPh4eGwRSgUlpSUHD9+vLKyMi8vLzY29s5DLDMzc8uWLeHh4SRJzs/Pu8+icrk8Jydn3bp1vr6+Y2Nj7e3tCQkJYrF4iQ07NTVVVVXlcDjWrFkTFxcHCh0Mw6xWa0NDg0KhcDqdTCaTIAilUllfX793796vnKJdLpfD4bhw4UJWVlZAQIBAIFh8jNPplMlkH3zwQWNjI4PB2Lx5c1FRUXR0NIvFmp6ehnmvvb3d398/Pj6+pKQkMjLymWeeASXy5ORkdXV1c3MzhmHbtm1LT0/ncrk4jotEIpIkpVJpT0+PVqstLi7Oy8uj7kin0zdu3AgaMYIgtFrthx9+2NfXNzIy0tvbS5Ikn88vKiqanJxsbGzMyclJTU39ut20fPihy3I9PT3g7BsaGkqn0ycnJ1tbW4uLi9PT01diGPcPATqdvmnTppSUFPi3v7+/pqZmamqKJMmvTLOBuAMQ+9vW1lZeXp6RkREZGelxgMVi6e3tvXHjxsLCQmJi4t69ew8ePEg5kmVkZDgcDo1GA25+W7ZsEYlEEMODYRho3RobG+ETcuDAgYiICOrKNTU1MpmMTqeHhYWlp6dT2zUazeDg4Pj4OIvF2rBhw61bt1Qq1eDgoEKhiI2NhWNycnKuXr1aW1vb2dk5Nzf3wzHMgkHGZDKdOHEiPz+/sLDQw1sGwzClUnnr1q3Ozk4Oh5Ofn//ss88mJiaCpnNubi46OnpwcFCj0Vy/fj0zMzMxMTE9PZ1q/9OnTw8NDY2MjPj5+e3evXvNmjWUsUImk7W2tlosFoFAkJKSEhwcrFKpqJvGxcWVlpYmJiZiGGYwGMLCwj7//HOLxUIQBEmSIpGooKDg008/bW1tlUqlycnJy9zR62sBtk2n03nu3LmsrCyhUEgNEIrZ2dmWlpZbt24xGIysrKynnnoqJycHLHhGozEpKWlycnJsbKyhoSE9PX316tUJCQkJCQlw7rVr18bHx3t7e728vO67776CggIqRG1ubq6hoUGn0/n4+Kxatco97G1ycrK/v1+j0YjF4uDg4JaWlrGxMYlEEhkZCUILn8/fuHHj6dOnu7u7R0ZGYJl4h58ZFxe3efNmUFrr9frg4OCysjK73Q5d/M0157eLy+W6fv26SqUSCAQCgcBqtWo0mkuXLt1zzz2gabrz6QwGA5Rf8fHx99577+IDTCZTb29vRUWFTqdLSUl56KGH9u3bRy1z09PTrVbr5cuXx8fHP/vss3vvvTcoKGj37t2wd3x8fHZ2FoKvsrOzDxw44N6h3d3dCoWCwWCEh4e7C+00Gi0+Pp66CIZhk5OTg4ODJpOJ6prc3NzLly/funWrq6tLq9W6B/UtKxQKRU9Pj8PhCAgIyMzMpNTr1BC7cOHC6tWrg4ODKS8SdyYmJk6fPq3X6729vXft2vXII4+sWrUKwzCSJA0Gg9Vq/fTTT2UyWVNTU2lp6fr166kPSlVV1cTERHd3N4PB2Lp1a3FxMdjWsC9Mr83NzVqttqSkJCkpiVroy2QyiUQyOzsbHBwcERHR1NQEQyw+Ph4ej8vlbt68uaysrK+vb2hoqLCwkLrsbYmNjS0tLU1OTsYwzGg0hoeHnz9/3mw2Qz9yOJzo6Oi4uLj+/v6mpqbc3FwPWW58fFwul3M4nKSkJPcoVoIgpqen29raaDQaRHtS77nRaDx37pzBYBAKhVwu12AwzM3NXbt27f777/9KT3hQskul0kuXLkVGRq5bt27xMQsLCx0dHdXV1Q6HIzMz89ChQ1u3boV5hiTJ5ORkrVZ769at7u7uK1euFBYWhoWF7d+/H85ta2tTKBQgyxUVFd1///3Ue+twOJqbm2dnZ728vGJiYuLi4iD4H8Mw0Dy6D4e2tjapVKrT6UiSdLlcTCazpKTk/Pnzw8PD/f39EIpZWlpaVlbW29s7NDS0YcOGO3fT8mFlSJzfEjDVDg0N+fv7l5aWlpaWcrlciUQyNDQExlzEMsTlcs3Nzc3Ozs7MzCiVSrlcrtfrIfo/ODh42WoZlz++vr7+/v5ms7mhoeHKlSuLA8F1Oh0IcgRBbNiwoaSkxH2dumbNmsLCwqioqIWFhZaWFpVKdYdQcg/6+/tVKhWfz4e4CGq7RCLp6uoiCEIoFD7//PORkZE4jg8MDLS3t1PHJCQkBAQE2Gy2mZmZ0dHRf6EBVhheXl4CgYDH48lkstOnT4+MjCwOqerr6+vv77fZbH5+fj/5yU/i4uIoF8qAgIDS0tJ169Z5e3sPDg5CUoEl3np+fr6jowPDsIiIiMDAQA+HNLPZDCNUpVIpFIqJiQmCILhcbmxsbEhIiJ+fX1JSEoZhBoNhbGzMI5vRSgeyFPj7+6tUqgsXLnR3dy/ulJGRkc7OTsiWtn///tTUVCphACz48vPz+Xw++IzMz88v8dYmk+nWrVt2uz00NFQkErmnQ6ipqVEqlTQaLTs7e9++feAbWV1dDd5cGIb5+Pikp6czGAyTyTQxMQGmoTtgNps1Gg10MbgtkSTJ5XLj4uKCg4OX+MB3F/AyqK+v12g0CQkJpaWla9eutdvtDQ0NSqXyK7O54jgeERHh4+PT2NhYXl4+PT29+Jj5+fmqqiq9Xk+SZHFxcXFxsbu9Iisrq7CwMDIyUqvVtra2qlQq91QNd6a3t3dmZsbPzy8sLMxDFWI2m+HjODMzMzExoVar7Xa7SCRKTk6GcZqYmOjv72+z2VQqlUf8+bJiampqcHCQxWLFxMQIBALKh5AaYpBSqKOjY/EQIwhCLpfX1tZCN23fvp3ShtBoND6ff+DAAfAmkEqldXV1S3wkp9OpUqmkUqnZbBaLxe7SdV1dnUwmgwCQQ4cOeXt7u1yu2tpamUwGB3h7e2dmZnp5eZlMpsnJSXfl12257SwKYXjgNOjt7b169WovL6+BgYHFr19lZeXLL798+PBhj7FsNBoVCoVCoaDRaKmpqZRRDlwQKysrTSZTRkbG5s2bk5OTdTpdY2OjRxKR28JkMmNiYphMZnl5+c2bNzUazeJjpqammpqazGazy+XasWNHTk4OpTCi0WgbNmxYv359UFDQ9PR0V1eXWq2+8x0pCIJobW3V6/VCoRC8Ut33GgwGGA7QcXNzcwRBhIeHx8bGMplMBoMBJj6LxaJQKORyOXQTi8VaYjctH37QdrmBgYHh4WG9Xh8TE7Njxw4Mw65evQqOIhKJJDc3924/IOI2EARx9uxZkUjkcrk0Gk1HR0dPTw8ktgIlFuKfIywsLCkpaWBgYGBgAPTEHhntbDbb+Pg4TOvJycmLXckhtUNfX5/D4RgbGwsJCVli2mupVKrVakGYpDa6XK7e3t6uri4fH5+0tLSioqLMzEylUjk4ONje3v7ggw+CTlQgEEBGPpPJdIc46e8fPB4vNTU1ODj49OnTp0+fzsnJWRzmNDs7C59VLpe7adMm9/TZGIax2exNmzZBygRYN9xWw70Y8FPCMEwoFC6ODu/v7z9z5oxQKLTZbBAXZzKZCgoKiouLY2Ji6HR6QEAAjUYjSXJmZsYjW8NKh8PhJCYmJiYmnj59GpKquZtNAK1WCwssJpNZWFjo4c+P4/j69esbGhogam5qauq2/nuLsVgsEonE4XD4+/u7L2hIkqyoqFCpVMHBwVlZWQUFBQkJCZCRcs+ePampqeDqLBQKQRGm0WhAgISs4hiGedQpwTCst7f3zJkzoEOZmJiorq62Wq2FhYXFxcUrxcHSYrE0NTXJ5XK73Z6SkrJ9+/aenp4LFy7odLqmpiYIpIEjSZIE1333RqDRaAcOHLhw4UJ/f399ff3nn38Ono3uWK1WqVQK1rDU1NTFwzMpKSkhIQF6bXR0VCQSLTEV0Pj4+MLCgkAg8Hh5SJLs7e394IMPMAxzuVzgtDI/P79169aHH34YjhEIBFDVwGQyUcL8MgRcPOh0ekhIiHswGJvNTkhISExM/PzzzysqKpKTkzMzMz3ONRgMarXaarXS6fT8/PyAgACPFzgtLQ0SkOj1+qV/NWw2W39/P8j5vr6+lMWGJMmqqiqlUikSidauXQv5nHt7e+vq6nbt2rV69WowW4lEIojlmZubAx3WHYaYRCIpKysTiUQ2m00ul1dWVhoMhvz8fIiOxjCMwWCA8npmZmaxGs5gMExPT0PSMvftarWayiztPnvPz8+3tbWpVCqXy5WdnZ2Xl8dkMmtqajQaTU1Nzc6dO+HT7HK54JnB3566rJ+f309/+tM33nhDqVSWl5fHxsa6u/4Cer2eunV2drZ72hhgzZo1NTU1ExMTIEeJxeKlOMeRJDk0NGQymYKDgz28CQiCaGpqgqxpVqu1v7+/srLS4XDs2bOHCkUWCoUQtK/T6dRq9W27aUXwg5blGhoaRkdHWSyWWCwuLCzEMEwkEikUiv7+/o6ODiTLLUPALfsf//gHzCNQ3oROp8fExCQkJKwUa/iyZc+ePbW1taOjo0NDQ2+88carr77qvhfWbZBwmcfjLc6DzOfzYTJ1Op3j4+Pu+TDvjFKp1Ol0ISEh7nrrmZkZiUQil8vDw8M3b97MYDDWr1/f2dkpkUgGBwelUin1SePxeBwOx2w2/6BkOQzDIiIinnrqqerqarVaffr06bCwMA/hWa1Wa7VaOp3u4+PjnsIboNPpEDGFYZhWq126KhS+tRiGQU4Uj71tbW09PT00Go0qMeRyudasWQMB+jiOe3l5+fv7Q1odvV7/z//+ZYm/v/9//Md/NDc3Dw4OXrlyJTo62kPHpNVqZ2dnaTQah8Ph8/keSQsgCARaVafTTU9Pr169ein3tdlsY2NjBEG4y3IOh0Mul3d3d+v1+ry8vPT09ICAgE2bNkkkksnJyYGBgaysLJFIBEk1oFNAlnO5XHq9vq6uzul05ufne7gut7a2dnd3u3cxhmFr166F6KB/pfW+MwwGAwRTgR9aYWEhnU7ncrlGo7GqqqqwsBBkObvdrlAoamtr165d6y6MgcFnz549GIZJJJILFy4UFBR41MKyWq1gsfzKCdNut4+Pj7unhr8zCoVCr9eHh4d7yHIEQbS0tPT09MC/DofDbreHhITEx8dToimTyfT19fX29l7mshxkc2EymUFBQR7uNr6+vi+++CJo+ioqKmJjY92jpDAMW1hYAHWJ+2jyQCAQ+Pj4UOl8loLD4RgZGQHpiMfjUR87GGILCwurV69evXq1n5/fPffcMzQ0JJfLBwYG1q1bFxwcTJUWmJqampub02q1UAqytrbW4XDk5uZ6ZIFqb2/v7e31mEVXr14dGRkJQ4yavefm5nQ6HRTtXGKrQsu4y3IzMzPl5eUul4vL5WZkZBQWFiqVSg6HY7VaL126VFRUBLKcxWKRSqW3bt0qLi6GEF8AzKcHDhz49NNPIUyD8lmlgLQuVArlxWoLauKyWCx3KGXkAcTLWSwWX19fyswIEAQBYXjYF7X7bDZbVFRUQkIC1doMBsPPz8/Ly0un083OzlLdND09Dd20xMe466yMaffbwGw2t7S0QJYeKjlvTk4OJEXs7u42GAwebwZiOcBgMCgtkdlslkqlnZ2d4+Pjf/jDH1544YUtW7bcOdIDcQeEQuHWrVvHxsZu3Lhx9erVHTt2uDsbwyocCrZCiU8PtRlBEKBlhPl6iRGnDofDZDI5HA4Oh+Muy0EoOUEQgYGBIMsVFBScOXOmr69PJpNBNjA4ks/n83i8H6AsByrqp5566t133+3o6KiqqvLQ/YMbCWhAblt0ldoO5VyXclOoLGcymTAMg1SKHgckJyenpqYKBAKSJBcWFvr7+/v7+8vKyqxW64EDBwoKCmB9Btk4v3+yHIPBiIiIeOSRR9555x2JRHLjxg2PlocKvFSnLB5HVKd8ZelqCqh7azQaSZJ0l+WMRuOlS5cWFhZcLldKSgrU1CopKTl8+LDVam1ra6PqqYKKWiaTgSwHUZSvvPKKy+V68cUX77vvPvfbUZeCxAzQxadPn7ZYLAcPHvRYWC9DCIKAH2g2m7Ozs+Pi4qBOaW5ubnV1NQTVrF69GjLsvfTSS319fUlJSb/61a/cjQl0On379u0qlWpiYqK/v//dd98FZT8FTJgYhn3lhAnFu7/uhOnj4+ORZIJGo6WkpKxfvx7+ValU4K529uxZk8n0+9//XiQSgZMhSK3LVpYjCMJqtVosFm9vbw+7HIZhdDo9PDx8//79BoNhcHCwoqLCw9HUvcj1bctGYxgGpcOhpMrSn0qr1ZIkCQpEuKnVar169SrIZomJiRDaV1pa+t5775nN5o6Ojvz8fHA8BvGJxWJpv6CqqupPf/qT0+l87rnnqNhyICkpKS0tDWZRnU4H3vLnzp2DWXTDhg2UXQ7GoFqtxnG8r68PTgdTlUajaWhoAD9PgUAQGxtrsViMRiO8mQKBAFrJ4XAoFIq6ujqXy5WbmxseHu7j4xMZGZmRkXHr1q26ujqlUgmKwq6urldffXVoaKiysvK//uu/3B+YyWTu27dvcHBQrVY3NTX5+/t7uCRAU4NMdYcewb7I3LuUHnG5XHa73Wg0EgQBywCPO+bm5kIEOBUoCOmIDAbDs88+C+GC/v7+bDZ7YWEBAu2obkKy3ArA5XKBAGAymTgcTmtr68svv4xhWH9/PyxTICEYNScilgkQ97x3715wdofU6pcvXz5y5Eh7e3tjY2NKSgrytPynYTAY2dnZW7ZsgeLF7777rlKppKIRWCxWWFgYnU53OBxarRZSbLufTs19EJS/xG8ktdBhMpmUYECSZFNTE8S/qdXqI0eOeHt7m81muVyO47hCobh58+bBgwdBX+vt7e3l5WWxWJYe8fX9AMdxPp+/b9++pqamxsbG6urq4eFhd6caf39/Pz8/WOgrlcrQ0FD3VZHT6ZyYmIDj+Xz+4iwdt4UkSeqjC7mhPQ5ITU196KGHYmJiQOqbnJz83e9+NzExce3atZSUlPz8fFhN0mg0SELwDTTEcgI0u7t27Wpra7t69eqtW7d0Op17pSM+nx8QEACyHBQqcF+4uFwuhUJhsVgwDONyuUtMTQErJBiq3t7e0MtgWzt37hys3qAAIJ1On52dhe5ra2sbHByEHsFx3NfXl8FgGI1Gs9lstVrlcrlEIsEwTK1We3hqpaenP/TQQ5GRkSRJWiyW8fHx3/3ud3K5vLy8PC0tLTc3d5lnDgOPsunpaVidnz17tr29fW5uTq1WQ/rH7u7urKyshIQEk8nU0dExOTnJZDL1er2HY1hoaCgov6qqqioqKthsNug4AC8vL7FYTKPRHA7H3Nwc1JF3P12j0VATZkRExFKUKdDRTqfT5XKxWCwPTQoke3j66afhX4PBUFtb+9lnn3V2dtbX17e3t99zzz1gEGaz2Xa7fdlOmARBwCRDo9F8fHw8XicYYjt27Ojs7FSpVK2trTabzW63u9cgBXdxGE2LJxmz2azVas1ms0AgWHq6LJjQQJZjsVgw9ZlMJnDNxXG8p6fnnXfeYTAYVFEKcCQpLCyEIQbFeKAcAjhPSiQSgiBmZ2ftdrv7XJqSkrJ3797Y2Fi4qVwu/+1vfyuVSq9fvw5F6mk0mq+vL7hamEymubm5qamp1157DU6Xy+Vzc3Nms/n9998HmTMtLe3RRx91Op0OhwMaEHwLsS9kfpBk1Gr1xx9/fOXKFblcDoLr3NxcW1tbTEyMWCzWarVdXV1TU1O+vr4Wi8X9gcFSvXv3bqVS2dPTc+PGDYgUpQ7gcDjgLg51/0wmk3tsPIZhlGqPzWYvsVYNNe+5XC4vLy+PJQeNRisoKNi3bx/2Rc6ba9euffrpp0NDQw0NDRDCimEYl8tlsVgg5cIPce+mJb4bd50frixXWVk5PT0NKo3Gxsa2tjYMw6xWK4RmguIfyXLLEBqNFhcXR+WxBOPMyZMn9Xr96OioUqlEsty/gkgkWr9+fXd399GjRysqKphMptVqBXUXh8NJSUk5f/68y+Xq6+sbHh5290O22WyDg4MjIyN0Ot3X1/cONZo8oNPpbDabwWCACwRshCoF8HWZnp7+5JNPYDuEVy0sLEgkkrGxsZiYGEgATRAEjuPLfAX5bcBgMOLj4/fs2aNSqUZGRpRKpbsVKCwsDD6KBoPh+vXrP/rRjyjNJRjNamtrTSaTl5dXcHDwEtc04I/HZrOtVqvVal2ceCAgICA+Ph7yWGIYlpSUdPz4cchUJJPJYIIFl6HvcZdBDLZMJgMhAXylYFdwcDDlv1ddXR0aGkrlC4GiTE1NTVqtlsViCYXCxVEltwUWZxwOx2Kx2Gw2qlLW2NgY5FnBMKytra2/vx/7QhrHMEwulw8ODs7MzISEhECnkCQJncLlctPT03fu3MlkMjMyMnx9fd2zsEAXUxGzCQkJx48f12g0kD/AbDYv89ykKpWqsrKSagSNRgP2DYvFAqvP1tbWDRs2JCQk+Pv779mzRyKRrF69enEoII1Gy8nJgSR4CoXi6tWr7vGfPj4+ycnJ586dc7lcPT09o6OjWVlZ1F6bzTYwMDA2Nkan0/l8PiRj+MonB20miOsOh8OjGjKO44GBgdTHEcMwHo/X1dXV3t4OAuqmTZuYTKbD4XA6nVAu8p9qv28dqrYYdMptfQqio6Pvu+++iYmJpqYmnU5Hp9Opw0BsCAgI0Gq1kPMzJibGXe7t6upSKBR2u93f33+xN+CXAZ82Go1GEAR8dOx2OwwxeMiurq6hoSHsi4yXGIYpFArITSIWiz2GGMSB33///ZAxxc/Pz/3lCQgIiIuLoxYzKSkpJ06cgPJ6k5OT7rMohmFwQYIgQAeEfWHbBy0e9DKkmfXy8oK8LE6nE6RfHMfHxsaamppg0oBFFPxGuBpJkjU1Nfn5+ZDuZffu3aOjo5AD0yMzE51OLykp6e3thUy8YC6j9vr7+4MK3uVyNTc3p6amUglpMAyzWq2dnZ1QPNDf3x/ynH1lj1DDATQmHionHMdDQkLch4OXl1dtbe3IyMjMzMzg4CDIctAy7h8ju91OddNXPsMy4Ycoy4GAXltbq9FoBAJBaGiou0IaKk5OT083Nzfr9Xoej7eCuvOHgMvlslgsoC+B9ajBYIAPMCjn7vYDrnhWrVr1wAMP1NXVjY+Pu+vVuFwuuP5brdZbt27FxsYKBILg4GA2m63X66HC2/j4OJ/PX7t27WLHmC+DxWJB9U+z2bywsAAbm5qaJicn7XZ7cHBwTEwMteYgSVImkykUipmZmaqqqrCwMAaDAUV1fX19f5hlIXEcv//+++FDCJlOKHVpXFxcUlLSzZs3oap4dHR0SkqKr68vOJzU1tY2Njaazebk5ORVq1YtMdwUou+EQiEsgj1WkxiGORwOaoRCDV/QScMCCKwKMzMzBEHcNojoe0NpaWl/f//Y2JhHMrSIiIi0tDQ/Pz+j0VhWVhYdHZ2TkwMmbrVa3dbW1tDQsLCwEBsbm5ycfNtKTYsBYwvEe4PBAcMw8LDS6XQ0Gg2yF1LfMoIgenp6jEbjwMBAb28vyHKQ85DL5Xp7ewsEguLi4oCAABaLBUWo3NdtHl08NTUFI5Tq4m+oCb8V7Ha7TCZraGjA3Orawy7If6hSqfr6+gYHBzdt2hQSEvLCCy8MDAwkJCSIRCIqLSGFSCQqLCzs6+s7evToyMiI+y5fX9/c3NygoCClUtnY2BgbG8vn84OCgiDlBkyYExMTAoFgzZo1S0/CDBMmBLwtNqyBByb1N0RSwU8DAQDDMJ1OZzQaBQLBso1HYDAYfD7fz8/PbrfDXHHbw4qLiyGDnYezKIPBCAsLKygouHDhwsjIyLVr13g83qpVq7y9vaGe+4kTJyYmJiD74tq1a5f+VGA+dTgcRqMRPEHq6urm5+dJkly1apV7in+CIPr6+vR6/dDQUHd3N9QM0Gg0drudw+FAAPOGDRt8fX0h2Axq31H3ch9iTqcTXCipWRRsa1TLgLetj4/Ps88+C6dfvXq1urpaJBLt27cP9EEikSg8PHx2dlYoFIKoqdfrQeQbGRnp6OhgMBgwHCidgtVqhU8t1I/JyMhITEx88cUXR0dHMzIy/Pz8FmfZFYvFmzdvHh4evnTpklQqdd8lFArXrFkTEBAwPz9//fp10PYGBgbS6XSdTtfZ2VlbW6tSqYKCgtLT05fojwDRHCKRaHp6WqfTLc6kZbfbqeEAhmiQ95xOJyX3arVaq9UaHBwMdkKYCW02m4+PzzLXSbnzQ5TlIBkRFF3Jzc19+OGH3ZM03LhxA8I3R0dHe3t7c3JylhhGgvhuAP9YmERsNptUKj19+rTNZmMymdHR0Us0zSPuAEQ/79+//y9/+YvJZKKUnT4+PtnZ2aWlpefPnx8dHT1+/LhWq924caNQKBwaGjp27FhrayuGYYmJiY8++ihE1i3xjsHBwTwez2QyQbcSBFFZWalSqby9vTdt2vT8889TY9But3/44YcfffTR/Pz8lStXHnzwQYhaNplMQUFBKyUf+jdOcHDw9u3bodK0+7onOjp6w4YNLS0tRqiCxAAAIABJREFUDQ0NN2/ehKJkiYmJVqu1sbHx2LFjer3ex8dn586d2dnZS6/nweFwxGKxXC6Hb57H3unp6Y6ODo1GQ5Kk0Wjs7++vq6vT6/UikSgsLIzH48GJUGrCw83m+4RQKCwtLR0ZGTl79qy7eCMWiwsKCvLy8iorK5uamv7617/ed999ENTR3t7+97//XaFQsNns0tLSkpKSpacSYbFYkZGR09PT8/PzYCWYmpqqrKzEMIzH4/3sZz/Lz8+HLoaV3DPPPNPb2wtZYTdt2gTFIZ1OJ5UdkcPhfFkCsKmpqfb29pmZGVCM9vb21tfXG43GoKCgsLCwZSshAJCqGhaa27Zt27NnD1Wby2QyffbZZ8eOHVOr1QMDAxMTE0lJScHBwXeeWFJTU/fs2VNdXT05OeluQeLxeDk5OZs3b7548eLw8PCxY8c0Gg1IyMPDw5988klHRwdU0zl48ODXWmaEhIRwuVyTyUQpvwDo9MbGRvhXr9dfvXq1ra2NTqcLBILU1FQ6nU4QBEyYUGxw6Tf9jvH19Q0KCpJKpXeo1hAYGLhx48ahoaFTp055HBMbG3vw4EFQi3zwwQczMzP33ntvSEiIWq2urq4+deqUTqeLjo6GOuxLfCQmkxkVFQVD0mAwQLaM69evkyTJ4/GefPLJkpISaha1WCy//OUvOzo6RkZGWlpatmzZ4nQ6QZajhhibzf6yITY9Pd3Z2QlejkajUSKR1NbW6nQ6oVAYFhbG5/O1Wu309LTT6QS5NzAwkM1mU/HSMzMz7e3tYrF4x44dlIsEhmF2u50Sk0B3A6+6QqHw8/N78MEHd+3aRSn1VCrVqVOnjh07Nj093d/fn5eXFxUVFRER4V4bdjHr1q0bHx9vbW31CF8PDAzMy8srKSkpLy/v7u6GiS4vLw+K4rz33nvDw8N0Oj0vL2/Xrl1Ln/dwHA8PDx8aGgKVrvsul8s1Pj4OwwHCDs+cOQOuQyKRCKyC4GVttVrBLxcslhqNxuFwLM4Tu5z5IcpyBoPh3LlzIKyvXbt269atHgl5urq62tratFrtpUuXMjMzkSy3fAC/gqeeespjO47jMTExGzduRA6W3whisfgnP/lJWVnZyMiI+2KdzWb/+te/VqlUVVVVw8PDw8PDb731FrUXx/HExMRdu3Zt3rz5a1mzQZbT6/Xz8/Ow1IC6T0lJSfn5+R560/7+/traWolEUl9fD6tJk8nkdDp5PB64cPww2bx5s0Qi6ejooCqlAgUFBVqtViqVymSy8vLy8vJy9704jm/cuHHXrl3u7i5fCYfDgTnztna5c+fOnTt3zuMuGIZt3bq1sLDQ4XDMz8/DWVSt6u8rBQUFk5OTdXV1HgWgMjIyfv7zn4+MjExOTt68eRMyrVHgOL5u3bpdu3alpaUt/V4gy7W2toJdzmazTU5ONjU1YRiWlZWVm5vrkQ8zNzd3amoKyiJDKjyIBRKLxV9ZBaGsrKysrMzjmTEMg/Lly9yTZWRkBJoFDNoFBQWU8Amv5eXLlzUajUQiaW9vh1qId4bNZqenpz/55JP/+Z//6WFB4nK5v/nNb6anp+vq6qDcyxtvvEHtxXE8OTl5586dmzZt+lo/gZLlPAwjTqfzzJkzZ86ccd+I47hAIMjMzLz33nuZTObCwgKUDgfHzq913+8SPp8vEolGRkZUKtWX2eUwDMvJyVEoFFBB0X27QCDYsGHDT3/608OHDy8sLBw/fvz48ePUXog0fuCBBx588MGl67BYLFZUVBQsCPV6PeT3r6+vJwhizZo1tx1iMplMJpN1dXXNzc3Z7XYYYqGhoV+pdD5//vz58+fdt8Cw2rJlS3FxMWQgg4BPoVB42xxUtwVaFfvC+mS327u7u7u7uzEM43K5+/btS0lJoS4VFRVltVpPnTplt9tbW1vz8/OXUnHEx8dn/fr1e/fuffPNNz12hYeHv/TSS5ArqK2tDSKb3H9gTk7Orl27vlbyJBqNFhERAc5BHrKcw+F4++233377bY+7BAUF5eTkFBUVQYyVxWKBFGvh4eGUaEeSZEhIyAqyDSxTb+lvD5fLpdPpLly4YDKZQkJCEhISPFRTUDke1B7Xrl37Ml9txHKATqfzeLzExMTHH3/88OHDpaWlS0x/hLgzNBotICDgpZde8hgdNBotLCzsL3/5y29/+9vc3FzKAwFSPx84cOC111574oknvu5iLiYmJiAgYGFhYWpqSq/XX758GbxWIF2ex8Hx8fGZmZkg1V+7dg3yrWMYJhAI3D3jf2gwmczNmzfv3r3bYzufz9+xY8eRI0ceeughd8dXb2/vtLS0P//5z6+99trXkhkwDAOHJQzDZDKZR4C7B1CuJy8v75VXXvnVr36VlpZmNBqhngGGYfHx8Uv0pVmhMBiMvLy8Rx55xGO7j49PUVHR6dOnH3nkkejoaCqylMViRUdH//73v3/99de/rlDk7e2dmprKZDKnpqbm5+dHR0ebm5vBoaikpGRxMGRBQUFISAg4LVdUVEA9AwzDoqKiKDvVUoCspOvWrXv11Vd/+ctfLq6nt6wgSXJkZKS5uRn86xITE90twywWKzMzMywsjM1mDw0N3bYO9W0JCQnZvXt3Zmamx5KaTqdHRET89a9//c1vfpOdnU3lF4UF5aOPPvraa6899thjX3fCjI2NhQISYJn5ssNYLFZoaOiWLVv+67/+6w9/+AOXy8VxXCaTwZJXIBAsRVK9WwiFwqioKIfDMT4+fodlGIPByMrKevzxxxfvCgwMfP755997770tW7ZQDsY4jnM4nPXr17/11lvPPffcnU1MHkAZAJFIxGKxZmdnW1pampqaYIgVFRUtDm1dt25dWFgYSZIKheLatWujo6PQWeHh4R61W+8MNYv+93//9wsvvJCRkYFhmN1uhwIJcXFxS0/fwuVyg4KC/P39wWZlMBi6u7v7+vo4HA6E57mvoLhcbmZmZnBwMJPJ7OjoGBgYWOJwiIuL27FjR0pKikdAppeXV3Jy8vHjx5999ll3oZFGo4nF4l/84hevv/76/fff/7WGA41GS0pK4nK5s7Oz4O5x28MgdWd4ePiuXbteeeWVZ599lsPhkCQ5Pj4OkY0hISExMTE2m43qpoiIiK/VTXeXH5xdDsfx0NDQw4cP2+32/6+9Ow+OozzzBz7dPfeM5tBcGt2SJVmHLcmSwKfk2+CD2wcYAoEENoFKNrukQnY32SOpbCWprWwgGxZXuG1wcAAnii3jA+MTWxhbxsa6L8uypBkdc189ffz+6P0pQhhbyJJ7ZvT9/EHhVknztVtvdz/dbz+v0NF73MNcuVz+8MMPL1y4kGVZlUql0+li/C7jDLFkyZJt27aNayskLMGpUqnMZnNaWtqXG17BDRUXF//+978X3jcbWwupVKo1a9akpaUFAgGVSjX67Fomk2VmZm7dunXp0qVOp9PpdHo8nrS0tOTk5LS0tLS0tGu+dmW1Wp966qk777yTZdm8vLxxV/C33357Xl7euXPnent729raampqtm/fHolE0tLSvnwjsKSk5Lnnntu6dStFUbNmzdq/f39vb6/QjGGCjSLi3be//e1169ZJJJKxlTZBEPn5+T/4wQ+Ec6FOpxPm25AkaTAYqqqqfvKTnwwODjocjpGREeH622QyZWdnf9UKxdXV1RkZGSMjIxqNprCwcOxx0mq1Llu27Pnnn/d6vY2NjWVlZRaLZdOmTcJEwbGEHgZarTY1NVWYBdTZ2Xny5EnhQXpubm6Mz8ebuM2bNy9YsIBhmLHrrQu93b797W9XV1dLJJKkpCTh6pkkSa1WW1JS8sMf/vAb3/iG0+kUFqVNSUkR3vtPSUm55m2pioqKf//3f3/66adlMtm4ykGn091xxx1C79mWlpaKioonnnhi1apVEomkuLj4y4/aVq1alZOT4/F49Hq9TCZ79913aZrOysoS3oP98kfbbLYHH3ywoqJi3Paxu/iaa8fHFIIgVq9enZmZybKsWq3OyMgYe7lJEIRKpfrlL38pPO8SulCO/Xa73f7YY48tXryYJMk5c+aM/vZKpdKcnJzf/e53Xq+XZdmMjIysrCzhSzKZLCsr65FHHlm+fLlwuSn0wzSZTGlpaampqdc8YKakpHznO99Zt24dx3EFBQXjDpgLFiyYNWuW0G340qVLc+fO/dd//ddnnnlmXF0n9HY3GAw2m01YjUAikZw+fbq/v99sNo9dZSsG5eTkzJ8/f+fOncPDw+fPnzebzffee295eXk0Gk1OTh49ZBEEkZaW9s1vflOYrDh6m0kikVAUZTKZVq1alZeXJ5yq3G638IuanJyck5NjNBq//FCurKzsJz/5yZNPPklRVHl5+dg3poS2T2vWrBkYGGhubr799tu/8Y1vCEO7sLDwy/+Yy5cvz8rKcrlcOp1OrVa/9957oVAoIyNDKMW//Fe2WCwbN2788t0QYYhpNBphiCmVykgk0tfXd+7cuUgkUlVV9eWz5H333VdVVTU6gWLsj8rMzFyxYsX7779/5MiRDRs2PPjgg8IsU4PBMG5hDJIkU1JSXn311WAwSJLkrFmzxg2H7OzsH/zgBw888IBwI2l07Mvl8srKym3btnm9Xp7n8/LyRldlUCqVs2bN+ru/+7t77rlHGA6RSCQ1NdVoNGZmZtrt9mu+opafn//DH/5QWO9eWA1l9EtSqXTFihU7duzo7e3t7Oxsa2vLysr67//+79E2CqP7ThgOycnJwkq2JEmGw+HDhw+73W673S6UxC6X6+DBg+Fw+Dq7KUbxX9OePXt6e3u/7neBWNrb24UFjiD2BYPBXbt2CSvVxIVoNCo8TAsGg0Jf4En/nBdeeKG4uDgvL+83v/kNx3ET/Eaapp944gmz2VxVVfXqq69OOsCkXbhw4eOPP771nztpgUBAWEB8dHGzSeA4rru7e/369RqNZvPmzSdOnJjgNzIMI/TUJknyiSeeaG5unnSGyYlEIu+//77T6bzFn3t9oVBoaGhIeJdm0j9EeHXt0UcfNZlM69atq6urm+A3sizb0NBQVlYmlUq3bNlSX18/6QxT7vTp0+fPnxc7xZShaVp4mCZM65r0z4lGo7/5zW8KCwsLCwtfeOGFCX4Xx3E0TT/yyCPJyckLFix48803Jx3gq7hcrj/+8Y9+v//mfxTLskLjeIIgvvvd797ksYJlWZ/P53A4PB7PxM8v11RfX79kyRKdTvfMM88MDQ1N8NOFVqhyufz++++f+AHzq/T19b3wwgsEQRgMhu3bt3s8nol/r9PpfO211xQKhclkeu+996ZkZ01OJBIZGRlxOBxCe89J/5xoNPqjH/0oMzNzwYIFO3bsmOB3cRw3ODi4fPlyjUZzxx137N27d+xueuCBB25+N/E87/F4du7c6fP5bv5HXd+Mm2MJAFNFeOvabrcLTYFv5ucsWLCgqqpqeHj46NGjo62Wr49l2Y6OjsbGRpqm582bN/FX2GcytVptNpuNRuPEXy7/MmF91YcffthgMAgv90+wdaHL5Wpubu7q6jKbzevXr7/he1kzhFKpNJlMJpPpZt7NFu5533fffXa7XVi8e1yH7q8itNpraWlJSkpatWrVRF6JgcmRyWQGg0Ho/XuTB8xFixbNmzfP6XQeP3584gfM9vb2xsZGhmEqKyvHtnyLQSRJZmVlbdiwgSTJ48eP9/X1TXCC31f9NK1Wa7Vab36m1dy5c8vKylQqVVtbm7DIxw35/f7W1tampiaNRrNixYrRDiWTNjAwcOjQIYlEUl1dXVJSMm6N7OtLTk6urKwsKSnx+Xznz58f12X3VpLL5cL6fqMr3U2OVCpds2ZNfn5+d3f3mTNnJtjMPBQKtbS0NDY2ymSyxYsXl5SU+P3+lpaW0d0Uy2+TftmMm2MJADGouLh4+fLlXV1dwqrfEzm48zx/9erVjIwMm822cuXKr9W9A26SWq1es2ZNbW2tME2DpumJFIdCS+jbbrtt1qxZixcvnuAqCDBBFEUtXbq0pqbm4sWLBEHQND2R4jAQCHi93oqKiuzs7Orq6sR+gzFhlJSULF++vLe3V1jmWCaT3fCAybJsb29vVlZWZmbm8uXLY/+AabFYVq9eXVtbK6yIyDDMxPuUTB+VSrVq1SphCp+wBswNBYNBl8tVXl6ek5NTU1Nz8+1DhXtnwru4E1yKbRRFUXa7fevWrXV1dcLiCjcZJhbcdttty5YtE05D4XB4Imvb0jQ9MDBQXFxsNpuXLl2amZnpcDjcbrewm6qrq+PrViMxkds5Y+3du7e8vPxrvRsNIuro6Oju7v66bbJAFKFQaM+ePatWrZrgolIJxuv1Dg8PC/2jVCrVRGo5of+eUqk0Go2jfQVupYsXL/r9/hn7SLCvry8QCOh0OqPROJHTZzAYFLqECe2eb/2VGU3Te/fuXbJkSQJXLA6Hw+fzqdVqk8k0kbfXwuHwyMiIsODYTT6wnXL19fVKpVJo9gDjeDwe4TVLu90+7k2na+I4TjhgqtVqg8EwHQdMt9u9f//+DRs2TNXCXMLqhZFIxGw263S6GPnlDIfDw8PD4XA4KSlpIn1HhMmEPp/PYDAYjcabbI3O87zP5+vv7ycIIicnZxI/jeO4YDA4MDAglUrNZnNiLAwzPDzsdrtlMpnVap1IV89oNDoyMuLxeITzl0KhmNrdJPB6vXV1dRs2bJjuf+SYGBgAAElJScJckQneZSQIQpiZNvFvgak1+rr/BP/91Wr16LrM2GXTxGq1CteXE/wXViqVwlrhwmLE05wOpoxOpxOar0xwr5EkaTabhd488bKjhVZbsfbLqVQqv1afLYVCkZKSYrPZpuRvQRBEUlKSUBtMbqauMONUmEMYO/+qNyk5OVloVTLBv5FQ9VksltGdMrW76RZDLQcAMWESR8+4O+AmGOyyGDS5nYL9EndmyOiLzV/Orxtpav8WU1UTTkmYGDElx73Y/GWbCPQ+AQAAAAAAiD+o5QAAAAAAAOIPajkAAAAAAID4M5n35bxe70S6Y0Es8Pv90Wh0gp1zQVzCMkFut/tmFtKBWykYDEYiEYyveMEwDMdxHo8nTl+KmGnC4TDP8xhf8UJocO9yuUKhkNhZAMQXCARuzQdNZk2CUCh0M8tcwq3EsizHcVPSXBWmm7BOl0wmw/iKFwzD8DyP8RUveJ6PRqNSqRRDLC5Eo1GCIGKkEz3cEMdx0Wj0Jpd+BkgYwhknRtckqKqqGm1FDTGuu7u7p6enpqZG7CBwY+Fw+MCBA9XV1QaDQewsMCFNTU2BQKCqqkrsIDAh0Wj0wIEDCxYsEJaygBh39uxZpVJZUlIidhCYEK/Xe/jw4RUrVoiy2idArPH5fIcOHboFHzSZWk4mk2GOZbwQ7kBjf8UFjuMkEolcLsf+ihcURWF8xRGh5TROYfGCoiiKorCz4oUwQwGnMABBJBK5NR+EeSYAAAAAAADxB7UcAAAAAABA/EEtBwAAAAAAEH9QywEAAAAAAMQf1HIAAAAAAADxB7UcAAAAAABA/EEtBwAAAAAAEH8ms75cgvH7/Q6HY2RkRCaT2e12o9Eol8vFDgXX43A4nE4nTdM6nc5ms+l0OrETwQ14PJ5Lly4VFhbq9XqKosSOAzfW3NxMEERGRgaW/Y1xXq/X4XC43W65XJ6ammo0GqVSnNljVDQaHRgYcDqdBEGYzWaz2YzxBVNuZGTE4XAEAgGNRmO32/V6PUEQYoeCaTSjj/gcxzU2Np46derSpUsej4eiqJSUlAULFlRWVtrtdrHTwXg8zweDwWPHjn3yySf9/f00TSclJeXl5VVXV8+ZMweXLzHL7/efO3fu9ddf//u///uioiKVSiV2IriBvr6+3bt3JyUl3XfffbjWjFkcx3322WenTp1qaWnx+XwURaWmpi5atKiiosJisYidDr6A5/mrV6+eOHHi7NmzIyMjEonEZDLNnTt34cKFeXl5YqeDBMGy7MmTJ+vr67u7u0OhkFKpzMjIWLp0aWlpqVarFTsdTJcZffl79erVP/3pT3V1dQRBpKam0jR9/Pjx8+fPP/bYY+vWrdNoNGIHhC8IBoMNDQ2/+tWvXC6X1WpVKpXNzc0fffRRa2vrc889l5KSgnIuprAsG4lEvF7vpUuXdu3aVVtbu2XLlvz8fLFzwbVxHMcwTCgUcrlcH3zwwa5du8rKylatWiV2LvhKPT09b7311pEjR2QymdVqjUQiH3300YULF7797W8vX74cRXhMGR4ePnz48P/+7/8GAoGsrCyO486ePXvq1CmHw/Hkk0/q9XqxA0Lci0ajHR0dL774YktLi06n0+v1Xq/3wIEDly5d+sd//MeSkhKFQiF2RpgWM/ra94MPPti/f7/Vav2Hf/iHZcuW0TT9P//zP6+88sqePXvy8/PLy8vFDghfcPXq1TfffPPs2bM//elPN2/ebLfbz5w58/vf/37Hjh2LFi268847jUaj2BnhbwYHB9vb2z/77LODBw/u379fqVSKnQiuJxQKXblypbm5+ezZs2+//XZPT09ZWZnYoeB6/vKXvxw6dKigoOB73/veggULAoHAb3/729dee23fvn05OTnFxcViB4S/aWhoeO+991wu13/8x3+sX7+eoqg///nP27Zte/fddysrK5cvXy52QIh7gUDg9ddfP3ny5KZNm775zW8WFhZ2dna+8MILb775ZllZmcViycjIEDsjTIsZ3fvkxIkTNE2vWbNm5cqVUqlUrVY//fTTFRUVra2tZ86cETsdjOdwOD788MOqqqqNGzdmZ2crFIr58+c/+eSTUqm0trZWmLUCsWPv3r1PP/309773vdra2nA4LHYcuIGOjo7nn3/+gQce+MUvftHZ2ckwjNiJ4AY+/PBDmUy2du3aJUuWyGQyvV7/7LPPFhcXX7x48bPPPhM7HXxBY2Nje3v70qVLN2/erNVqVSrVvffeu2HDBuExuNjpIBEEg8Hdu3dnZmbefffdpaWlcrk8Pz//xz/+scViOXbs2OXLl8UOCNNl5j6XGxoa6u/vt9lss2bNGn0rVK1W5+XldXR09PT0iBsPxgkGgwMDAx6PZ+HChaPTX6VSqcViKSwsbGpqCgQC4iaEcTZs2DBv3rxgMDg8PHzkyJHXX39d7ERwPbNmzXr22WcffvhhiUTS0tKybds2sRPBV+I4TjiFZWRkZGVlCacwgiA0Gk1BQcHHH3/c19cndkb4G4/HMzAwIJVKy8vLR683lEplenq6yWRqbm4WNx4kAJqmHQ5Hf3//smXLRl+XpShKp9PNmTPn6tWruN+dwGZoLcfz/NDQUDAYzMjISE5OHt1OkqTFYuF53uVyiRgPviwYDApHoqysrNFGowRBKJVKu93e1tZG07SoAWE8s9lsNBp5nh8YGOjq6hI7DtyAWq3Ozs4WJuFIpVK0h41lHMc5nc5wOGwymQwGw+h2kiRtNls0GnW73SLGg3E8Ho/X6xXOVqMbCYLQ6XRarXZgYEDEbJAYaJoeHBykadput499V1Yqlaanpzc2NuJ+dwKbobWcRCLx+/0MwyiVynGv8QhN9kKhkEi54Nqi0WgwGCRJMikpiST/NjeYoiitVuv3+1mWFTEefBlFUcLyAwqFAm1pYh9BEFKpVNhTcrl87CiDWMPzvM/nY1lWpVKN62egVqs5jotEImJlgy8LhUKRSEQqlY7rJahQKORyud/vFysYJAyGYXw+n0Qi0Wq1MplsdDtBEElJSZFIJBqNipcOptfMPVuzLMvzPEmS4y5ZhD9yHCdSLrg2juOEao2iqLErpRAEQZKksDfFSwcAcOvwPD96Chu3chRJkjzP4xQWUziO4zhOOFuN3S7sO9yIhJsnHBMkEsm4Y4LwW8dxHK6REtjMreUoihJqgHGH0dETpFjB4JpIkqQoiuf5aDQ69pDE8zzDMOMKPACABCY8RCUIgmGYcWWb0LQGp7CYIlxvCGersduFGk+YvwBwM4RjgkQiGXdMEH7rCILANVICm7mHe41GQ1FUOBwe12EvGAxKJBL0T481MplMpVKNziwa3c4wjN/vV6vVOB0CwAwhtDkRTmHjplMGg0GCIEZfKoZYIMyljEaj495ZikQiNE1jMVu4eRRFCb9IgUBg7HRK4aoJbzokthlayxEEISw2PTw8PDQ0NPZLTqeTZdmxb5NDLNBoNGazmWGYrq6usW1OIpHIlStXrFYrrl0AYIYgSdJut8tkMqfTOa49XX9/P0VRWHs6phiNRp1O5/f7e3t7x273eDxut9tqtYoVDBKGQqGw2WwEQfT29o69ZcBx3OXLl7Va7diGKJBgZmgtJ5FIDAZDZmbmwMBAY2Pj6LSHq1evtrS0qFSq3NxccePBOAqFwmq1Wq3Ww4cPu91uYQqB3+/v6Ojo7OwsKyvDrU0AmCFIkjQYDNnZ2ZcvX25raxNOYTzP9/T0NDc36/X6zMxMsTPC32g0mtTUVIlEcvr06dHXBIaGhtra2nw+39y5c8UOCHFPJpOZzeZZs2adO3eur69PmL4UiUQ6OzubmppycnLMZrPYGWG6zNxHrhRF1dTUtLa2Hjx4MDU19bbbbvP5fLW1tZcuXVq0aFFVVZXYAeELSJJMTU1ds2bNjh07Xn311bVr1xqNxkuXLu3evVsikdx1111j15YAAEhsUql01apVPT09dXV1BoOhrKzM7Xbv3r27s7Pz7rvvRnkQUyiKmjNnTnFx8ZkzZ37/+98vW7aMYZgTJ058+OGHFovljjvuEDsgxD2hX+X999+/ffv2d955h6bprKysnp6e3bt3u93umpqa7OxssTPCdJm5tZxEIlm6dOmVK1cOHjz48ssvHz58OBQKtba2zp49e+3atbNmzRI7HYxns9k2bdrU1dX10UcftbW1qVQqp9Pp9XoffPDBxYsXJyUliR0QAODWWb169ZUrV44fP/6HP/whIyMjEAi0trZWVlauWbMmKytL7HTwBSWrWk73AAAgAElEQVQlJXfffbfL5dq+ffuZM2dYlu3p6VEqlevWrSsvLxc7HSQCtVq9adOmK1euNDY29vf3m0wml8t1+fLle+65Z+wC4pB4qH//93//Wt/Q1taWkpKSGMvIGo1Gi8WiVqtDoZDX6yUIoqioaNOmTUuWLDEajWKnmxoul8vtdifGlFFhOrjNZmNZVni712w2V1dXP/LIIzk5OQnwXi/DMK2trbm5ucIihwmDYZhIJEIQxMqVK61WawLsqVFOp5OmaWF97UQSiUSCwWB+fn5paWki3SVhWbatrS0zMzMxpmSbTCaz2axUKkOhkM/nk0qlc+fOfeihh+bPn58Y78tdvXpVKpWmpKSIHWQKaLVai8WSnJwcDof9fj/HcVlZWevWrduwYUNi/AUlEkk4HO7o6CgoKMDr66KgKMpms5lMJoqigsFgKBRKSkqqqqp6/PHHi4uLE+y6Ii5EIpG2trZbMCIS56JqcoqLi4uLi8PhsMvlUigUer0e7RBjmUqluvPOO++44w6Xy8UwjEajSYxrssRmMBhWr169evVqsYPARGVnZz/33HNip4AbKy8vLy8vD4VCbrdbqVTq9XqsRhCzUlNTt27d+uCDDw4ODlIUlZSUNG6dd4CbV11dvWTJEp/PFwqFVCpVYjx6geub6bWcQKlU2u12sVPARBEEgbfjAAAEKpUKN93jBUmSNptN7BSQyAiC0Ol0qOJmDtzAAwAAAAAAiD+o5QAAAAAAAOIPajkAAAAAAID4g1oOAAAAAAAg/qCWAwAAAAAAiD+o5QAAAAAAAOLPZNYk4DiO47gpjwLTged5nuexv+KCsJswvuIIxld84f8/7LK4gJ0VX3ieF/6LXQYg+f8XdbcAIYy9idu7dy9N01hQO14wDMMwjFKpFDsI3BjP86FQSKlUYrXfeBGNRjmOw4K/cSQYDGKIxYtIJEIQhFwuFzsITAjHcaFQSK1WEwQhdhYA8QkXdRs2bNBqtdP6QZN5LpeXl2c2m6c8CkyH/v5+h8NRXl4udhC4MZqm6+vrS0pKpnvYw1Tp7u4OhUJFRUViB4EJYRjmk08+KSws1Ov1YmeBG2tubpbL5bm5uWIHgQkJBAJnz54tKyvD7S0AiUQSDAbPnDlzCz5oMrVccnKy3W6f8igwHYLBoMvlwv6KC6FQiCAIs9lsNBrFzgITMjQ0JJFIML7iBU3TJEmaTCaLxSJ2Frixnp4epVKJ8RUv3G63RCKxWCwajUbsLADi83q9t+aDMM8EAAAAAAAg/qCWAwAAAAAAiD+o5QAAAAAAAOIPajkAAAAAAID4g1oOAAAAAAAg/qCWAwAAAAAAiD+o5QAAAAAAAOLPZNaXSzDhcNjj8fj9foqijEajRqORSvHPEgecTmckErFYLEqlUuwscAPBYLC3tzc1NVWtVpMkbiHFLp7n3W63x+PheV6j0eh0OoyvuBAOh7u7u9PS0tRqNUVRYseBa2MYxuPxeDwegiCSkpJ0Op1cLhc7FCQmj8czPDxst9uVSiVBEGLHgWk0o4sWnucdDkdzc3NTU5PD4ZDJZDk5OXPmzMnOztbpdGKng+vx+/3Hjx8fGRlZt25dWlqa2HHgeiKRSFtb265dux555JHc3FyFQiF2IrgGnueDwWBHR8dnn3125coVlmWtVuvs2bOLiopsNpvY6eB6aJru7Ox84403Hn744fz8fJVKJXYiGI/nea/X29bWduHChatXrxIEkZqaWlhYWFBQYDabxU4HiSYYDDY0NHzyySebN2/OyMjA/Z3ENqNruUAg8Kc//en111/v7u7WarU0TQeDwXXr1j311FM1NTX41Y9BHMdxHBeNRs+ePbt9+3aapm+//XbUcrGJ53mO4xiG6erq+vOf//ziiy8uXrw4PT0dtVxsikajn3/++b/927998sknarWa5/lwOJydnf3EE0889dRTUqkUd3ZjzegQ6+npqa2tfeGFFxYsWJCVlYVaLgZFIpFTp0796le/OnfunF6vZxgmHA6XlpZ+61vfevDBB2UymdgBIREIx4RoNNrU1LRr165jx45VV1enpaXhgjaxzehabt++fe+++65Go/nd7363Zs2aSCTyX//1X7W1tSaTKT09PT8/X+yA8AUMw/h8vv7+/k8++eT111//9NNPa2pqxA4FXykYDDqdzs8//7y2tva9994TOw7cQHNz8xtvvFFfX//ss89u3LjRYDB88MEHr7zyyksvvVRRUVFZWYnJYLEmFAo5nc5Lly7t2bNn165dYseB6zl79uyOHTu6urp+9rOf3X///VKp9J133tmxY8drr71WUlJSUVEhdkCIezzP+/3+/v7+8+fPv/POO4cOHcrIyBA7FNwKM7qWO3bsWCAQ2LBhw9q1aw0GA8/zTz/9dHt7e2Nj49mzZ1HLxRqHwyE8R/V4PIODg8FgUOxEcD0HDhzYvn37xYsXXS6Xx+PBvOUY19XVVV9fX1FRsXXrVmFOztq1a91u929/+9va2tri4mLUcrHm0KFDO3bsOH/+vMvlcrvd2EGxrLGxsampacGCBVu3bk1OTiYIYuPGjU6n8y9/+cuBAwdQy8HNCwaD77///htvvHH58uWRkRG/3y92IrhFZm4t5/F4urq6DAbDnDlzjEajRCIhCCInJ6ewsPDYsWPt7e1iB4TxkpKS5s+fr1AoOI7r7+/fv3+/2IngembPnr1p06aVK1d6vd6GhoaDBw+KnQi+UjAY7Ovrc7vdd955Z0pKijDjy2KxzJ4922w2f/LJJzRNi50RxisoKHjggQeWLl3q8/kuXrz4/vvvi50Iri0QCPT29kaj0crKSovFImy02+2zZ89Wq9Xnz58XNx4kBplMVlpa+o1vfCMYDA4PD588efLq1atih4JbYebWcoODg16vNyUlZexr/VKp1G638zw/ODgoYja4Jq1WW1lZOXfuXIlE0tTU1NbW5vP5xA4FXyk/Pz87O5vjOIfDIZfLUcvFMr/fPzIyQhBEXl7e6JsVJEnq9Xqr1drc3MyyrLgJ4cvy8vIyMzM5jhscHNRqtajlYpbH43G5XHK5PDs7e3QjRVEmk0mn0/X29oqYDRKGTCabM2dOQUEBz/Pd3d0ejwe13AwxQ2s5oaNUNBpVq9VqtXrsl7RaLc/zgUBArGzwVUiSlMvlwjwitVqNpSNinEwmEx7v+P1+9DuJcaFQKBAISKVSo9E4tseJXC7XaDRut5vjOBHjwTVJpVLhMBgMBjHEYlkgEAiFQgqFQq/Xj92uVCqVSqXT6RQrGCQSgiBGT7sajQaTrmeOmbvQE03THMdRFDWuJBD+iJvQADBzsCzLsixJkjKZbGwtR5KkVCqlaZrneRHjAcQ1hmGE8TXueoMkSZIko9GoWMEAIAHM3FqOJEmCIIT+rWO3syzL8zy6bwPAzEEQhHA8FA6Ao9uFIySOhwA3Y3R8jbvewPgCgJs3c2s5lUpFUVQkEolEImO3C3/Es2kAmDlkMplcLmdZdlx7WIZhIpGIWq3G5SbApCkUCplMxjBMKBQauz0ajUajUawHCAA3Y4bWcgRBWCwWhUIxMjIyMjIy9kuDg4Mcx42b1A4AkMCSkpL0en0kErly5crYRwfBYHBwcDAlJQVLzQJMml6v12q1gUCgv79/7Hav1+v1ekc7WwIATMIMreUkEonRaExJSXE6nW1tbaNvxw0NDXV0dMjl8szMTHHjAQDcMhqNxmazyeXy+vr6cDgsTLP0+/09PT0Oh2POnDnC+/QAMAlJSUk2m41l2YaGBoZhhI0ej6e7u9vr9c6ePVvceAAQ12ZuJ0CFQnHbbbe1t7efOHGipKRk9uzZoVDoyJEjjY2NeXl5paWlYgcEALhFpFJpVlZWcXHx2bNn9+zZU1VVJZfLGxsbDx8+LJFI7rzzTqVSKXZGgHglk8lmz56dkZFRX1+/d+/euXPnchzX0NDw8ccfq9XqpUuXih0QAOLYzK3lJBLJihUr2tvbT58+/eKLL1ZWVvp8vqNHj8rl8mXLls2ZM0fsdAAAt05eXt5dd93V2dm5bdu2zz//XCaTNTY2dnV1LVq0aOXKlWh5D3Az5s6du3r16u3btz///PM1NTUMw5w7d87pdFZXVy9ZskTsdAAQx2Z0LVdWVvboo48qFIoPP/zwwoULBEHY7fZHHnlk7dq1RqNR7HRwPQqFIjU1VaPR4BIz9gmrluXn52u1WpKcufO6Y5zdbr/rrrsikcjbb7+9e/du4bXh6urqxx9/PDU1Vex0cD0URRkMhtmzZ2OIxaycnJz777+fZdldu3a99dZbEokkOTl57dq1Dz30kM1mEzsdJBqZTGaxWHJyclQqFTpXJTzi664atHfv3vLy8rS0tGkKJIpQKORwOFQqlclkSrAVqDs6Orq7u1euXCl2ELixUCi0Z8+eVatW4VZCvLh48aLf71+4cKHYQaYSz/NChwadTqfVasWOM5Vomt67d++SJUvQbSIu1NfXK5XKsrIysYNMJY7jent7ZTKZwWBIsA6Wbrd7//79GzZs0Gg0YmcBEJ/X662rq9uwYcN0n0kTqm6ZNKVSmZ6eThAE7mgCwAxHEITVapVIJDgeAkw5kiSFB93oDQsAUwK1nEQikRAEkWCP4wAAJg3HQ4Dpg/EFAFMIt10BAAAAAADiD2o5AAAAAACA+INaDgAAAAAAIP6glgMAAAAAAIg/qOUAAAAAAADiD2o5AAAAAACA+DOZxriNjY3d3d1THgWmg9/vDwQCJ0+eFDsI3BjLsizLnj9/Xi6Xi50FJsTj8TAMg/EVLziOi0ajFy9eVCgUYmeBGxseHqYoyu/3ix0EJoSmaZ7nP/30Uyy6ACCRSKLR6K35oMmMN61Wq9PppjwKTAeO4yKRiMFgEDsI3BjDMP39/UlJSSqVSuwsMCGRSISmaYyveMGy7MDAgFar1Wg0YmeBG/P7/VKpFOMrXoTDYYfDodfrZTKZ2FkAxBeJRAYGBm7BB02mlsvMzExLS5vyKDAdOjo6aJouKSkROwjcWCgUam1tnTVrltFoFDsLTAjHcX6/H+MrXtA03dHRkZOTY7FYxM4CN+b3+5VKJcZXvHC73e3t7fn5+bhXAiCRSLxeb2tr6y34ILwvBwAAAAAAEH9QywEAAAAAAMQf1HIAAAAAAADxB7UcAAAAAABA/EEtBwAAAAAAEH9QywEAAAAAAMQf1HIAAAAAAADxZzLryyUkjuNcLpdWq5XJZCSJEjemRSKRSCTCcZxMJlMoFFIpfo1jVzQajUQiDMOQJKlUKmUyGUEQYoeCG/P7/RKJRKVSURQldha4HoZhhDXrhSEml8sxxGKfx+ORSqVKpRLjC6ZJJBIJhUJarRbXSAkPO1gikUh4nvd6vTt37lyxYkVOTo5KpRI7EVwbz/PRaLSlpaWtrS0UCtlsttmzZ6empuJQFZsYhrl69WpLS8vAwIBGoykpKcnMzFSpVLhdEuNYlj1x4gRJklVVVcnJyWLHga/EMExfX19LS8vVq1fVarUwxDQaDYZYLGNZ9uDBgzabrbS0VK/Xix0HEhDHcW1tbQ0NDatWrbLZbDggJDZcAUskEonb7T548ODPf/7z5ORkm82GWi428TzvdDp//vOfHzhwIBAI8DwvkUiys7OffPLJrVu3KhQKsQPCFzAM84c//GHnzp3t7e0EQbAsK5fLH3vssUceeWT27Nlip4PraWho2LZtm91uz87ORi0XsxiGef311996662WlpbRIbZ169ZHH320uLhY7HRwbSzLnj59+vnnn1+xYkVmZiZqOZgO3d3du3btOnToUGFhocViQS2X2GZ0LReJRFwu1+XLl0+cOPH2228PDQ3RNC1UCBCD+vv7d+3a9f77769evXr16tUWi+XixYt//etff/e73xUUFMybN0+tVoudEf5m79697777rkKhePbZZ0tLSz0ez5tvvrl7926LxaLX61NSUsQOCF/AMIzf73c6nZ9//vmOHTtOnDixfv16juPEzgVfaf/+/e+++y5BED/4wQ/mzZsXCATefPPNvXv3ms1mg8GQmpoqdkD4m2g06vP5+vr6Lly48Nprr124cGHhwoUsy4qdCxIHz/OhUGhoaKi1tXXPnj179uxRKpUMw+CyNuHN6Fru/PnzdXV1Z8+evXz5cnNzM65aYtzAwMBf//pXnU63ZcuWxYsXa7XawsJCkiR/8Ytf7N+/PycnB7VcTNm3b9/IyMh99923ZcuW1NTUUCik0+l++MMfnjp1qry8HLVcrOnv7z948OC+ffsGBgY+//xzr9crdiK4gf379w8ODq5du/ahhx5KS0ujaVqr1f7TP/3T6dOn582bh1oupnR1dR04cODw4cN9fX0XL14MhUJiJ4JEEw6Hjxw5Ultb297e3tbWdvXq1cLCQrFDwa0wo5+6UhSlVqtTU1MrKiqWLl2KZ9CxLBqNOhyO5ubm22+/XXjHgKKo9PT0xYsX22y2kydPejwesTPC/+E4zu/3f/bZZ1artbKyMj09nSRJtVq9dOnSgoKCy5cvd3Z2ip0RxiMIQi6XG43GoqKi5cuX2+12sRPBV+J5PhAIXLx40Wg0VlZWZmRkCI1PqqurCwsLr1692t7eLnZG+AKSJBUKhdlsnjt37qpVqzB1GaYcQRBSqTQpKSk3N3fRokVz584VOxHcIjP6uVxpaens2bMZhnG73R999NHx48fFTgRfKRgMOp3OUChUVlamVCqFjRRF6fX63NzcS5cuhcNhcRPCKI7jHA6Hy+UqKiqyWq3CRoIgFApFbm5ue3v74OCguAnhy+x2+/33379+/XqJRPLZZ5/97Gc/EzsRfCVhiI2MjJSWlo59xK1QKLKysi5duuR0OkWMB1+WnZ29devWjRs3six79uzZrq4usRNBolEoFDU1NfPnz+c47vLly2+88cbBgwfFDgW3woyu5eRyuVwuF/5fq9WKGwauLxQKeTweiqKsVuvYrpUymcxkMo2MjESjURHjwVgsyw4NDTEMo9frNRrN2C8ZjcZoNBoMBsXKBl9FmKcgTFTW6XToDRvLOI4bHh4Whti4k5fRaGQYJhAIiJUNrkkqlUqlUo1Gw7JsUlISliKAKUcQhFKpFG52u93u0bvekPAwqxDiA8uyNE0Lz3bGzoYlSVIul9M0jdcdYwfP8+FwmOM4uVw+riSQy+UcxzEMI1Y2gAQwOsSECmHsl+RyOc/zGGIAADMEajmIDwRBCAvgchw3tikTz/Oo4mKQsL/G7SyJRIKdBXDzCIIQbmnxPP/lIYa2dQAAMwdqOYgPFEUJ95tDodDYKxWO48LhsFKpROua2EEQhEqlIggiEomMm/saiURIksT8PYCbJBz0aJq+5hCTyWRiBQMAgFsJl78QH1QqlV6vZximr69v7LULTdNOp9NoNOLaJXZQFGU2m6VSqcvl8vv9Y780NDREUdS4l+gA4GshSdJkMslkMpfL5fP5xn5peHiYJEkMMQCAGQK1HMQHlUplsVjUanVDQ0MgEBAezdE0PTg42N3dnZubq1KpxM4I/4ckSYvFkpycfOXKlb6+PmFeJc/zHo+nq6tLq9VaLBaxMwLEsdEh1tfX19vbO3aIdXd3K5XK0f6xAACQ2FDLQXyQyWQpKSlFRUX19fXnz5/v7+8fGRlpbW09derU4ODgkiVLdDqd2Bnh/5AkqdVqy8vLnU7np59+2tnZ6XK5+vv7jx492tbWlpWVlZubK3ZGgDhGEIRGoyktLR0ZGfn00087OjpcLpfD4Th+/Hhra2t6enpeXp7YGQEA4FbAWysQN1JTUzdu3Pgv//IvL7zwwl133WWxWM6dO7d///7U1NR77rkHS6/Gmnvvvbe5ubmuri4cDi9YsGBgYGDHjh2BQKC6urqkpETsdABx76677mpqajpw4ABN09XV1YODg2+99ZbL5Vq8eHFZWZnY6QAA4FZALQdxw2q1btq0yePxvPLKKz/96U85jlMqlWVlZT/60Y+Ki4sVCoXYAeELVqxY4fV6X3755VdeeeWll14iCMJsNj/77LMbNmwwGo1ipwOIe0uXLvX5fC+//PIbb7zx8ssvSyQSs9n8/e9//95778W9LQCAGQK1nEQikeh0utWrV58+fTozM1Ov14sdB66NIAiDwfD444+vX7/e4XBEo9GkpCSr1ZqSkjK65jvEDqlUunr16vLycofD4Xa7hTce7Xa7Xq8XlpeAmFVYWPjiiy/KZDKbzSZ2FvhKUql0+fLlc+fOdTgcLpdLqVRiiMU+kiTLysp27tyZlJRkNpvFjgOJKS0t7Xvf+96jjz6amZmJxtEJDztYIpFIKIoyGo14VhD7KIqyWq1WqzUvL4/jOJlMhvaVsUyv1+v1+qysLJqmpVKpXC7HJWZcUKvVeOEqLowOsUgkQlGUQqHAEItxwruOhYWFYgeBRCaXy1NTU1NTU8UOArcCajmIS0qlUuwIMFEouQGmlVQqxa13AICZCX0sAQAAAAAA4g9qOQAAAAAAgPiDWg4AAAAAACD+oJYDAAAAAACIP6jlAAAAAAAA4g9qOQAAAAAAgPgzmS7GV65c8Xq9Ux4FpsPw8HAwGGxqahI7CNxYNBrlOK6zs1OtVoudBSZkcHCQpmmMr3jBsizDMN3d3UNDQ2JngRtzu90ymQzjK16EQiGe59vb2+VyudhZAMQXDodvzQdNppbzer3RaHTKo8B0CAQC0WgUFy5xgWVZnuc9Hk8wGBQ7C0xIKBRiGAbjK15wHMdxnNfrvWWnWLgZkUgE5684IlwZulwuiqLEzgIgPoZhbs0HTaaWKykpSUtLm/IoMB06Ojq6u7urq6vFDgI3FgqF9uzZM2/ePKPRKHYWmJCLFy/6/f6FCxeKHQQmhKbpvXv3lpaWWiwWsbPAjdXX1yuVyrKyMrGDwIS43e79+/ffdtttGo1G7CwA4vN6vXV1dbfgg/C+HAAAAAAAQPxBLQcAAAAAABB/UMsBAAAAAADEH9RyAAAAAAAA8Qe1HAAAAAAAQPxBLQcAAAAAABB/UMsBAAAAAADEH9RyAAAAAAAA8Wcya4UnpEAgUFdXV1lZmZaWplAoxI4DN8Dz/IULF9xud2lpKVbWjmWDg4Pd3d1Op1OtVufn59tsNplMJnYo+Eosy3Z2dnZ3d3Mcl5KSkpWVZTAYxA4F1zM8PNzV1eVwOFQqVV5eXkpKilwuFzsUXFs4HO7q6uru7qYoKj09PT09XafTiR0KEk1fX19XV5fX69XpdHl5eRaLhSTx5CaRoZaTSCQSr9dbX1//61//+qc//WlycjJqudjX1dX1zjvveDyelJQU1HKxiWXZ2traurq6tra2aDQqkUj0ev0999yzdu3azMxMsdPBeBzHXblyZceOHcePHw8EAizLKpXKkpKS++67b8WKFWKng2tgWbaurm7Pnj0tLS2jQ2zDhg1r167NyckROx18AcdxTU1NO3fu/Pjjj2ma5jhOo9FUVlbec889CxcuFDsdJAiGYbZv337o0KHe3l6GYSiKslgsGzduvOOOO5KTk8VOB9NlRtdy0WjU7/c7HI6GhoZdu3Y1NDSMjIwwDCN2Lrg2juPC4bDX6718+fKePXtqa2szMzPD4bDYueDa6uvr//jHP/b19RUXF8+aNcvv9x86dOitt97SaDTr169HBR5r+vv76+rq3n777VmzZs2fP1+pVDY2Nn766acejyc3Nzc9PV0qndHnixh05syZd955p7u7u6ioqKCgIBgMHjp0aOfOnSqVSqfTmUwmsQPC33R1ddXW1u7ZsycvL6+iokIikZw7d+7YsWPhcDg9PT0jI0PsgBD3wuHwiRMntm/fThDEvHnz7Ha70+k8duzYSy+9ZDKZFi5cmJSUJHZGmBYz+tzc0dFx+vTphoaGixcvnjx5kmVZsRPB9fh8voaGhuPHj7e1tZ04caKnpwePd2JZbW1tc3PzihUrnnrqqfz8/EAgkJWV9ctf/vLIkSOFhYVVVVViB4QvaG9v37t3L8uyTz311JIlS9RqdUNDwyuvvPLhhx9+9NFHmzdvRi0Xa+rq6i5durRo0aLvfve7RUVFoVAoOzv717/+9ZEjR4qKilDLxZQLFy4cPnxYrVZ///vfv+222yiKOnHixEsvvXT8+PFFixahloObFwgE3nrrrd7e3ieeeGLLli0ZGRn9/f2pqam/+MUvPvroo+zsbNRyiWpGz6Dt7e39+OOP6+vrvV5vZmYmQRBiJ4LrCQQCn3/++QcffNDa2pqUlITXeGIWz/ORSOTUqVMGg6G6urqoqEgqlep0uq1btxYUFLS0tLS2toqdEb6AYZienp6WlpaFCxcuW7bMYDDI5fKKioo1a9ZQFLV///5IJCJ2Rvgbnudpmq6vr9dqtdXV1XPmzKEoSqvVbt68uaioqKOjo6mpSeyM8DcMw7S1tfX39y9evLimpkalUsnl8iVLltTU1EQikaNHj4odEOIex3E+n+/w4cO5ubk1NTU5OTlSqTQtLW3r1q1paWmffvppb2+v2Blhuszo+6zV1dWVlZXRaNTj8Rw5cuSZZ54ROxFcj81me/zxxzdv3iyRSFpaWn7729+GQiGxQ8E1sCzrcDgcDsftt9+empoqbCQIQqVSFRQUHD16dGBgQNyEMI4w25xhmMrKytHnbzKZzGq1pqenX7p0SXgdC2IEx3FOp9PhcBQVFaWnp49uF9qfdHV1YYjFFI/H43A4pFLp3LlzRzfK5fLU1NTk5GTc24KbR9P0wMCA0+m8//77R5/JkySp1WpLSko+//xzl8slbkKYPjP6uZxCoTAYDGaz2WQy6XQ6PJeLcRRFqdVqi8ViNpuNRqNSqRQ7EVwby7JOp5NhGKPROG5Sh9lspmna7/eLlQ2uye/3ezweuVyekpIytuOZSqUyGAwOhwNT0GOKUMtdc4iZTCaGYbxer1jZ4Ms8Ho/f71epVGazeex2rVar0WiGhobECgYJg6bpoaEhnuctFjVWrA4AAAarSURBVMvYqyOSJG02m9/vx73vBDajn8tJJBJiDLGzwI0Juwn7K8bxPB8KhXiel8vl416yUigUHMfhIU+siUaj0WiUJMlxt0goipLL5eFwmOd5sbLBNYVCIY7jZDLZuEU+hCGGJl4xhaZpoanguC7ZUqmUoih08IKbx3GcUK0plUqKoka3CzNiotEo7sclsBn9XA4Apsl1Lv1RFcQgnuexy+LLdXbZ9fcm3HoYXzDdRn+LrvnrhN+xxIZaDgCmGEEQcrmcIIhoNDru+QBN0wRBjL1rCLFAKpVKpVKhac3Y7SzLRqNRYW+KlQ2uSS6XkySJIRYXhOdvHMfRND12O8MwLMtibXe4eSRJCo/ohdULR7cLR3WKorBceALDrgWAKUaSpNFopCjK6/WOm6PvdrspilKpVGJlg2tSqVRqtToajQ4PD4+9gxuJRHw+n8FgwHVATCFJ0mAwUBTl8/mCweDYL3k8HpIk1Wq1WNngyzQajUqlikQibrd77PZQKBQKhXQ6nVjBIGFIpVK9Xk8QhNvtHntLjuf54eFhpVKJWwYJDKdnAJhiFEXZbDaNRtPf3z84OCjUBsLdwZ6eHqVSiYXCY41WqxV6ZrS0tIw+52EYxuVyORyOrKwsPOeJKUI/A61WK3SuGy2/I5HIlStXZDJZcnKyuAlhLIPBYDQaQ6FQR0fH6M6KRqNDQ0Nut3tsJ1KAyVEoFDabTaVSdXV1eTwe4deM47hgMNjZ2ZmcnIzF5RIYajkAmGLCQ4P8/Pyurq7m5uZQKMSybCQSaWlpaWlpsVqtWBg31qhUKrvdbjAYjhw54nK5hJl7Tqezubl5cHBw/vz5uKcbUwiC0Ov1eXl5V65caWxsDAaDLMvSNN3W1tbc3GwymbKyssTOCH+jVqvT09Mpijp16pTP52MYhmGYvr6+pqamYDBYXl4udkCIe1Kp1GQyFRYWNjQ0XL58ORwOsyzr9/ubmppaWlpmzZplsVjEzgjTZab3sQSAaXLfffe1t7f/8Y9/jEajixYt6u/vf/XVV3t7ezdt2lRWViZ2OhivoKBg1apV27Zt++d//udNmzapVKqjR4/+5S9/MZvNW7ZswZy9GHT33Xe3tbW9++67PM/X1NQMDg6++uqrXV1d3/nOdyorK8VOB19QXl5+++2379mz57nnntu0aVM0Gt23b98HH3yQmZl59913i50OEoFGo3nsscf+8z//86WXXhocHCwqKmptbd2+fXs4HL7jjjtyc3PFDgjTBbUcAEyLVatWOZ3OP//5zy+//PLbb78djUZpmn788cfXrVuHG4QxKDs7e8uWLW63++jRow0NDQRB0DSdnZ390EMPzZ49e9zaEhALli9fPjg4+P7777/22mvvvPOOMMQefvjhu+66y2q1ip0OvqCoqGjr1q3hcHjfvn0ff/yx0Adlzpw5W7duxUU2TAmVSnXvvfcODAzs27fv+eefl8vlwkozP/7xj6urq/V6vdgBYbrg9CyRSCRqtbqqqurFF19ctGiRVqsVOw7cWGpq6re+9a1IJII3DWKW2Wy+5557hJmWXq9XoVBYrdaKioqsrKxxK2JBLFCpVCUlJc8888zSpUudTifHcXq9Pjc3t7S0FL1qYpPJZFq/fn1ubm5nZ6ew1LvVai0vL8/JycEQizVarbayslKj0axcuXJwcFBoEFVQUFBcXDxuUUeAyRHeVH/ooYfKysp6enpCoZAweb6qqiotLQ334xIYdq1EIpEoFIrc3FzcG4sjRqNxxYoVYqeAG8jKysrKyopEIsFgUCaTaTQatLaPZRqNpqKiYt68eT6fj+d5lUqF1+RiXGZmZmZmJoZYXDAYDAsWLJg/f77Qa1SlUqHkhilXUFBQUFAQDAZpmpbL5ZgePxOglgOA6aVQKBQKhdgpYKIIgkCT9PiCIRZHCIIwGAxip4AEp1arUcXNHOhjCQAAAAAAEH9QywEAAAAAAMQf1HIAAAAAAADxB7UcAAAAAABA/EEtBwAAAAAAEH9QywEAAAAAAMSfyaxJ4HK5sOZgvPB6vTRNOxwOsYPAjUUiEZ7nh4eHaZoWOwtMiN/vD4fDGF/xgmEYjuNGRkY4jhM7C9xYKBRiWRbjK174/X6JRDI0NCT8D8AMFwgEbs0HETzPf61vOHz4sM/nm6Y0AAAAAAAA8Y4giJUrV2o0mun9lK9by7EsO01RAAAAAAAAEgNFUdP9EV+7lgMAAAAAAADRofcJAAAAAABA/EEtBwAAAAAAEH9QywEAAAAAAMQf1HIAAAAAAADx5/8BMYl8SY7ssbkAAAAASUVORK5CYII=;" vertex="1" parent="1">
                    <mxGeometry x="40" y="470" width="760" height="143.35" as="geometry"/>
                </mxCell>
            </root>
        </mxGraphModel>
    </diagram>
</mxfile>